<?xml version="1.0" encoding="UTF-8"?>
<svg version="1.1" xmlns="http://www.w3.org/2000/svg" width="512" height="512">
<path d="M0 0 C5.92412956 2.69278616 6.5204325 4.91075688 10 11 C10 17.93 10 24.86 10 32 C31.45 32 52.9 32 75 32 C75 25.4 75 18.8 75 12 C79.88372093 2.23255814 79.88372093 2.23255814 85 0 C89.90961163 -0.62814149 94.31658437 -0.68052972 98.9375 1.1875 C101.87529227 3.76919623 104.24572228 6.49144457 106 10 C106 17.26 106 24.52 106 32 C127.78 32 149.56 32 172 32 C172 24.74 172 17.48 172 10 C177.71428571 1.42857143 177.71428571 1.42857143 182 0 C187.18749192 -0.49676139 191.61804673 -0.60303415 196.4375 1.5 C199 4 199 4 203 12 C203 18.6 203 25.2 203 32 C224.45 32 245.9 32 268 32 C268 25.07 268 18.14 268 11 C270.80569424 5.38861152 272.52707905 2.73646048 278 0 C283.31135952 -0.52940021 287.67272741 -0.66363629 292.5 1.75 C295.75983476 4.68385128 297.61095276 6.83285829 299 11 C299.08143855 12.62719482 299.1075302 14.25751719 299.09765625 15.88671875 C299.09443359 16.82451172 299.09121094 17.76230469 299.08789062 18.72851562 C299.07951172 19.70498047 299.07113281 20.68144531 299.0625 21.6875 C299.05798828 22.67556641 299.05347656 23.66363281 299.04882812 24.68164062 C299.03704303 27.12115474 299.02059011 29.56054689 299 32 C299.61006393 31.99111755 300.22012787 31.98223511 300.84867859 31.9730835 C307.25750256 31.88388021 313.66614726 31.82396621 320.07543945 31.78027344 C322.46027808 31.7602856 324.8450685 31.73308605 327.22973633 31.69824219 C348.68798659 31.39278667 364.4013415 33.28867666 380.67578125 48.515625 C389.75011005 58.21524368 395.11405042 70.40978223 395.13422108 83.66970062 C395.13657331 84.33004083 395.13892554 84.99038103 395.14134905 85.67073154 C395.14801468 87.88707168 395.14758156 90.10335285 395.14717102 92.31970215 C395.15047117 93.92342547 395.15419706 95.52714796 395.1583125 97.13086939 C395.16832353 101.54108971 395.17204785 105.95129642 395.17470181 110.36152649 C395.17860754 115.11702044 395.18818572 119.87250364 395.19691467 124.62799072 C395.21667182 136.11438798 395.22674449 147.60078611 395.23564246 159.08719611 C395.24002672 164.49785402 395.24539319 169.90851095 395.25063133 175.31916809 C395.26764311 193.30816189 395.28213685 211.29715509 395.28938007 229.2861557 C395.29128993 233.95379131 395.29321027 238.62142691 395.29516602 243.2890625 C395.29564976 244.44916472 395.2961335 245.60926694 395.2966319 246.80452377 C395.30493061 265.59364645 395.33026509 284.38270544 395.36274669 303.17180032 C395.39583093 322.4669844 395.41383008 341.76213613 395.41702431 361.05734873 C395.41918818 371.88891455 395.42791875 382.7203875 395.45348549 393.55192566 C395.47521112 402.77740358 395.48323372 412.00276606 395.47351871 421.22826666 C395.46897939 425.9326712 395.47083881 430.63683765 395.49028015 435.34120941 C395.507951 439.65454469 395.50688247 443.96746886 395.49138286 448.28080875 C395.48901272 449.83472113 395.49329929 451.38866228 395.50521151 452.94253081 C395.63348882 470.7923369 390.72683657 484.59113692 378.484375 497.67578125 C368.57631578 506.94511338 356.32936107 512.11525504 342.83054352 512.13422108 C341.75899127 512.13774942 341.75899127 512.13774942 340.66579151 512.14134905 C338.26566374 512.1480201 335.86559035 512.1475814 333.4654541 512.14717102 C331.72973724 512.15047083 329.99402114 512.15419664 328.25830603 512.1583125 C323.48323545 512.16832738 318.70817743 512.17204847 313.93309784 512.17470181 C308.78496263 512.17860639 303.63683736 512.18818464 298.4887085 512.19691467 C286.05309977 512.21667494 273.61749024 512.22674483 261.18186975 512.23564246 C255.32491519 512.24002616 249.46796153 512.24539277 243.61100769 512.25063133 C224.13967324 512.26764333 204.66833934 512.28213728 185.1969986 512.28938007 C180.14435322 512.29128995 175.09170786 512.29321029 170.0390625 512.29516602 C168.78326061 512.29564976 167.52745872 512.2961335 166.23360223 512.2966319 C145.89251552 512.30493139 125.55148765 512.3302671 105.21042663 512.36274669 C84.32418518 512.39582476 63.43797362 512.41382952 42.55170584 512.41702431 C30.82588141 512.41918873 19.10014276 512.42792751 7.37434387 512.45348549 C-2.61236597 512.47520267 -12.5989692 512.48323786 -22.58569998 512.47351871 C-27.67894878 512.46897697 -32.77197765 512.47085303 -37.86519623 512.49028015 C-42.53380249 512.50793346 -47.20202873 512.50689646 -51.87063915 512.49138286 C-53.55375621 512.48901009 -55.23689974 512.49331308 -56.91997641 512.50521151 C-75.10747465 512.62575601 -89.23761168 508.05760744 -102.67578125 495.484375 C-111.33502426 486.22844466 -117.11492897 474.15695879 -117.13422108 461.43772984 C-117.13657331 460.7768551 -117.13892554 460.11598037 -117.14134905 459.43507913 C-117.14802912 457.21089913 -117.14758112 454.98677768 -117.14717102 452.7625885 C-117.15047028 451.15560344 -117.15419598 449.5486192 -117.1583125 447.94163603 C-117.16833385 443.51775479 -117.17204952 439.09388712 -117.17470181 434.66999614 C-117.17860454 429.9015329 -117.18818301 425.13308041 -117.19691467 420.36462402 C-117.21668153 408.84369681 -117.22674627 397.32276871 -117.23564246 385.80182877 C-117.24002562 380.37572765 -117.24539241 374.9496275 -117.25063133 369.52352715 C-117.26764499 351.48396158 -117.28213845 333.44439662 -117.28938007 315.40482426 C-117.29128996 310.72292645 -117.29321029 306.04102865 -117.29516602 301.35913086 C-117.29564976 300.19547253 -117.2961335 299.03181419 -117.2966319 297.83289348 C-117.3049295 278.98874183 -117.33026126 260.14465371 -117.36274669 241.30052979 C-117.39583098 221.95113677 -117.41383014 202.60177601 -117.41702431 183.25235456 C-117.4191883 172.38947482 -117.42792058 161.52668769 -117.45348549 150.66383553 C-117.47521128 141.4108851 -117.48323369 132.15804978 -117.47351871 122.90507675 C-117.46897927 118.18650256 -117.47083945 113.46816576 -117.49028015 108.74962425 C-117.50795039 104.42329651 -117.50688295 100.09737866 -117.49138286 95.77104633 C-117.48901261 94.21239347 -117.49329986 92.65371194 -117.50521151 91.09510279 C-117.63222687 73.36616201 -112.8132661 59.39591665 -100.60546875 46.390625 C-95.94488189 42.1143444 -90.77337296 38.59322451 -85 36 C-84.21020752 35.63519531 -83.42041504 35.27039062 -82.60668945 34.89453125 C-70.81285565 30.37387778 -58.1035492 31.5685814 -45.6875 31.75 C-43.28972846 31.77009623 -40.89194066 31.78834146 -38.49414062 31.8046875 C-32.66240128 31.8484332 -26.83127782 31.9150974 -21 32 C-21.01571045 31.39526855 -21.0314209 30.79053711 -21.04760742 30.16748047 C-21.1103188 27.40341704 -21.14910411 24.63950379 -21.1875 21.875 C-21.21263672 20.92367188 -21.23777344 19.97234375 -21.26367188 18.9921875 C-21.32027756 13.55804201 -21.12171297 9.66777461 -18 5 C-12.16551207 -0.2652696 -7.71405294 -0.76376762 0 0 Z " fill="#E6EFEE" transform="translate(117,0)"/>
<path d="M0 0 C5.92412956 2.69278616 6.5204325 4.91075688 10 11 C10 17.93 10 24.86 10 32 C31.45 32 52.9 32 75 32 C75 25.4 75 18.8 75 12 C79.88372093 2.23255814 79.88372093 2.23255814 85 0 C89.90961163 -0.62814149 94.31658437 -0.68052972 98.9375 1.1875 C101.87529227 3.76919623 104.24572228 6.49144457 106 10 C106 17.26 106 24.52 106 32 C127.78 32 149.56 32 172 32 C172 24.74 172 17.48 172 10 C177.71428571 1.42857143 177.71428571 1.42857143 182 0 C187.18749192 -0.49676139 191.61804673 -0.60303415 196.4375 1.5 C199 4 199 4 203 12 C203 18.6 203 25.2 203 32 C224.45 32 245.9 32 268 32 C268 25.07 268 18.14 268 11 C270.80569424 5.38861152 272.52707905 2.73646048 278 0 C283.31135952 -0.52940021 287.67272741 -0.66363629 292.5 1.75 C295.75983476 4.68385128 297.61095276 6.83285829 299 11 C299.08143855 12.62719482 299.1075302 14.25751719 299.09765625 15.88671875 C299.09443359 16.82451172 299.09121094 17.76230469 299.08789062 18.72851562 C299.07951172 19.70498047 299.07113281 20.68144531 299.0625 21.6875 C299.05798828 22.67556641 299.05347656 23.66363281 299.04882812 24.68164062 C299.03704303 27.12115474 299.02059011 29.56054689 299 32 C299.61006393 31.99111755 300.22012787 31.98223511 300.84867859 31.9730835 C307.25750256 31.88388021 313.66614726 31.82396621 320.07543945 31.78027344 C322.46027808 31.7602856 324.8450685 31.73308605 327.22973633 31.69824219 C348.68798659 31.39278667 364.4013415 33.28867666 380.67578125 48.515625 C389.75011005 58.21524368 395.11405042 70.40978223 395.13422108 83.66970062 C395.13657331 84.33004083 395.13892554 84.99038103 395.14134905 85.67073154 C395.14801468 87.88707168 395.14758156 90.10335285 395.14717102 92.31970215 C395.15047117 93.92342547 395.15419706 95.52714796 395.1583125 97.13086939 C395.16832353 101.54108971 395.17204785 105.95129642 395.17470181 110.36152649 C395.17860754 115.11702044 395.18818572 119.87250364 395.19691467 124.62799072 C395.21667182 136.11438798 395.22674449 147.60078611 395.23564246 159.08719611 C395.24002672 164.49785402 395.24539319 169.90851095 395.25063133 175.31916809 C395.26764311 193.30816189 395.28213685 211.29715509 395.28938007 229.2861557 C395.29128993 233.95379131 395.29321027 238.62142691 395.29516602 243.2890625 C395.29564976 244.44916472 395.2961335 245.60926694 395.2966319 246.80452377 C395.30493061 265.59364645 395.33026509 284.38270544 395.36274669 303.17180032 C395.39583093 322.4669844 395.41383008 341.76213613 395.41702431 361.05734873 C395.41918818 371.88891455 395.42791875 382.7203875 395.45348549 393.55192566 C395.47521112 402.77740358 395.48323372 412.00276606 395.47351871 421.22826666 C395.46897939 425.9326712 395.47083881 430.63683765 395.49028015 435.34120941 C395.507951 439.65454469 395.50688247 443.96746886 395.49138286 448.28080875 C395.48901272 449.83472113 395.49329929 451.38866228 395.50521151 452.94253081 C395.63348882 470.7923369 390.72683657 484.59113692 378.484375 497.67578125 C368.57631578 506.94511338 356.32936107 512.11525504 342.83054352 512.13422108 C341.75899127 512.13774942 341.75899127 512.13774942 340.66579151 512.14134905 C338.26566374 512.1480201 335.86559035 512.1475814 333.4654541 512.14717102 C331.72973724 512.15047083 329.99402114 512.15419664 328.25830603 512.1583125 C323.48323545 512.16832738 318.70817743 512.17204847 313.93309784 512.17470181 C308.78496263 512.17860639 303.63683736 512.18818464 298.4887085 512.19691467 C286.05309977 512.21667494 273.61749024 512.22674483 261.18186975 512.23564246 C255.32491519 512.24002616 249.46796153 512.24539277 243.61100769 512.25063133 C224.13967324 512.26764333 204.66833934 512.28213728 185.1969986 512.28938007 C180.14435322 512.29128995 175.09170786 512.29321029 170.0390625 512.29516602 C168.78326061 512.29564976 167.52745872 512.2961335 166.23360223 512.2966319 C145.89251552 512.30493139 125.55148765 512.3302671 105.21042663 512.36274669 C84.32418518 512.39582476 63.43797362 512.41382952 42.55170584 512.41702431 C30.82588141 512.41918873 19.10014276 512.42792751 7.37434387 512.45348549 C-2.61236597 512.47520267 -12.5989692 512.48323786 -22.58569998 512.47351871 C-27.67894878 512.46897697 -32.77197765 512.47085303 -37.86519623 512.49028015 C-42.53380249 512.50793346 -47.20202873 512.50689646 -51.87063915 512.49138286 C-53.55375621 512.48901009 -55.23689974 512.49331308 -56.91997641 512.50521151 C-75.10747465 512.62575601 -89.23761168 508.05760744 -102.67578125 495.484375 C-111.33502426 486.22844466 -117.11492897 474.15695879 -117.13422108 461.43772984 C-117.13657331 460.7768551 -117.13892554 460.11598037 -117.14134905 459.43507913 C-117.14802912 457.21089913 -117.14758112 454.98677768 -117.14717102 452.7625885 C-117.15047028 451.15560344 -117.15419598 449.5486192 -117.1583125 447.94163603 C-117.16833385 443.51775479 -117.17204952 439.09388712 -117.17470181 434.66999614 C-117.17860454 429.9015329 -117.18818301 425.13308041 -117.19691467 420.36462402 C-117.21668153 408.84369681 -117.22674627 397.32276871 -117.23564246 385.80182877 C-117.24002562 380.37572765 -117.24539241 374.9496275 -117.25063133 369.52352715 C-117.26764499 351.48396158 -117.28213845 333.44439662 -117.28938007 315.40482426 C-117.29128996 310.72292645 -117.29321029 306.04102865 -117.29516602 301.35913086 C-117.29564976 300.19547253 -117.2961335 299.03181419 -117.2966319 297.83289348 C-117.3049295 278.98874183 -117.33026126 260.14465371 -117.36274669 241.30052979 C-117.39583098 221.95113677 -117.41383014 202.60177601 -117.41702431 183.25235456 C-117.4191883 172.38947482 -117.42792058 161.52668769 -117.45348549 150.66383553 C-117.47521128 141.4108851 -117.48323369 132.15804978 -117.47351871 122.90507675 C-117.46897927 118.18650256 -117.47083945 113.46816576 -117.49028015 108.74962425 C-117.50795039 104.42329651 -117.50688295 100.09737866 -117.49138286 95.77104633 C-117.48901261 94.21239347 -117.49329986 92.65371194 -117.50521151 91.09510279 C-117.63222687 73.36616201 -112.8132661 59.39591665 -100.60546875 46.390625 C-95.94488189 42.1143444 -90.77337296 38.59322451 -85 36 C-84.21020752 35.63519531 -83.42041504 35.27039062 -82.60668945 34.89453125 C-70.81285565 30.37387778 -58.1035492 31.5685814 -45.6875 31.75 C-43.28972846 31.77009623 -40.89194066 31.78834146 -38.49414062 31.8046875 C-32.66240128 31.8484332 -26.83127782 31.9150974 -21 32 C-21.01571045 31.39526855 -21.0314209 30.79053711 -21.04760742 30.16748047 C-21.1103188 27.40341704 -21.14910411 24.63950379 -21.1875 21.875 C-21.21263672 20.92367188 -21.23777344 19.97234375 -21.26367188 18.9921875 C-21.32027756 13.55804201 -21.12171297 9.66777461 -18 5 C-12.16551207 -0.2652696 -7.71405294 -0.76376762 0 0 Z M-87 159 C-87.0825 208.809375 -87.165 258.61875 -87.25 309.9375 C-87.28641602 325.67429443 -87.32283203 341.41108887 -87.36035156 357.62475586 C-87.37372797 371.71130959 -87.37372797 371.71130959 -87.3817749 385.79786682 C-87.38550672 392.08003212 -87.4001864 398.36205531 -87.42230225 404.6441803 C-87.44777359 411.89017015 -87.45934146 419.13602358 -87.4537798 426.38205853 C-87.45137127 430.0883322 -87.4551756 433.79430101 -87.47686052 437.50051868 C-87.49995608 441.47201326 -87.4919671 445.44310321 -87.48101807 449.41465759 C-87.49266872 450.56706719 -87.50431938 451.7194768 -87.51632309 452.9068079 C-87.450215 461.82019155 -85.47190573 469.52809427 -79 476 C-73.01471014 480.27347268 -68.65885461 482.123545 -61.20602226 482.13422108 C-60.50795877 482.13657331 -59.80989527 482.13892554 -59.09067833 482.14134905 C-56.73401059 482.1480457 -54.3773979 482.14758062 -52.02072144 482.14717102 C-50.3210031 482.15046924 -48.62128554 482.15419471 -46.92156899 482.1583125 C-42.2368714 482.16834551 -37.55218662 482.17205139 -32.8674798 482.17470181 C-27.82027293 482.17860102 -22.77307624 482.18817964 -17.72587585 482.19691467 C-5.52972227 482.21669024 6.66643215 482.22674682 18.86259776 482.23564246 C24.60351701 482.2400237 30.34443533 482.24539095 36.08535385 482.25063133 C55.16544211 482.26764493 74.24552979 482.28213951 93.32562447 482.28938007 C98.27860642 482.29129002 103.23158837 482.29321035 108.18457031 482.29516602 C109.41563691 482.29564976 110.64670352 482.2961335 111.91507517 482.2966319 C131.86130044 482.30493368 151.80746577 482.33027252 171.75366487 482.36274669 C192.22397915 482.39580291 212.69426295 482.41382755 233.16460407 482.41702431 C244.66117689 482.41919077 256.1576623 482.42795931 267.65420914 482.45348549 C277.44455219 482.47517286 287.23478662 482.48325257 297.02515097 482.47351871 C302.02067904 482.46896829 307.01598289 482.47090338 312.01148033 482.49028015 C316.5862052 482.5078716 321.1605416 482.50694676 325.73527037 482.49138286 C327.38876662 482.48900067 329.04228949 482.49336196 330.69574501 482.50521151 C341.54409875 482.57813045 350.79845992 481.96721037 359 474 C364.97981133 466.14081939 365.28839533 459.32047117 365.24050903 449.77542114 C365.24222107 448.53597244 365.24393311 447.29652374 365.24569702 446.01951599 C365.24842942 442.57973836 365.24216441 439.14018857 365.23214546 435.70043841 C365.22340749 431.93396428 365.22633499 428.16749583 365.2277813 424.40101433 C365.22884434 417.0907532 365.2196124 409.78054124 365.20677864 402.47029274 C365.19237733 394.0139631 365.19078907 385.55766297 365.18920898 377.10131836 C365.17870877 354.77587112 365.15078654 332.45043482 365.125 310.125 C365.063125 235.318125 365.063125 235.318125 365 159 C215.84 159 66.68 159 -87 159 Z " fill="#000000" transform="translate(117,0)"/>
<path d="M0 0 C1.01252838 0.0028299 2.02505676 0.00565979 3.06826782 0.00857544 C6.28782188 0.01972996 9.50709315 0.04482604 12.7265625 0.0703125 C14.91536055 0.0803484 17.10416299 0.08947319 19.29296875 0.09765625 C24.64592908 0.1196538 29.99872558 0.15308426 35.3515625 0.1953125 C35.36614502 0.76975098 35.38072754 1.34418945 35.39575195 1.93603516 C35.47069975 4.56476946 35.56720244 7.19229802 35.6640625 9.8203125 C35.68662109 10.72394531 35.70917969 11.62757812 35.73242188 12.55859375 C35.94576387 17.87274887 36.59706483 21.51340494 39.3515625 26.1953125 C39.3515625 26.8553125 39.3515625 27.5153125 39.3515625 28.1953125 C40.1559375 28.5046875 40.9603125 28.8140625 41.7890625 29.1328125 C44.3515625 30.1953125 44.3515625 30.1953125 45.3515625 31.1953125 C50.98526125 31.81205426 55.59294345 31.51527928 60.3515625 28.1953125 C66.33299006 20.34192211 66.33299006 20.34192211 65.3515625 0.1953125 C87.4615625 0.1953125 109.5715625 0.1953125 132.3515625 0.1953125 C132.6815625 7.1253125 133.0115625 14.0553125 133.3515625 21.1953125 C136.54550036 27.75654643 136.54550036 27.75654643 142.3515625 31.1953125 C146.94969101 32.01610775 151.00900254 31.69255109 155.2265625 29.6328125 C159.09220748 27.02178281 159.09220748 27.02178281 161.3515625 20.1953125 C161.6815625 13.5953125 162.0115625 6.9953125 162.3515625 0.1953125 C184.1315625 0.1953125 205.9115625 0.1953125 228.3515625 0.1953125 C228.6815625 6.7953125 229.0115625 13.3953125 229.3515625 20.1953125 C232.46726114 27.79901849 232.46726114 27.79901849 238.3515625 31.1953125 C244.05168772 31.93421762 248.46606682 31.45230962 253.3515625 28.1953125 C260.48459216 20.32438322 257.82075947 11.34217618 258.3515625 0.1953125 C280.4615625 0.1953125 302.5715625 0.1953125 325.3515625 0.1953125 C325.6815625 7.4553125 326.0115625 14.7153125 326.3515625 22.1953125 C329.95988992 28.18407024 329.95988992 28.18407024 335.3515625 31.1953125 C341.76908381 31.99938875 341.76908381 31.99938875 347.53515625 29.671875 C348.13457031 29.18460938 348.73398437 28.69734375 349.3515625 28.1953125 C350.0115625 28.1953125 350.6715625 28.1953125 351.3515625 28.1953125 C353.09983004 23.88291922 354.45985587 20.19501844 354.66796875 15.52734375 C354.70986328 14.63466797 354.75175781 13.74199219 354.79492188 12.82226562 C354.85389648 11.42911133 354.85389648 11.42911133 354.9140625 10.0078125 C354.95724609 9.06744141 355.00042969 8.12707031 355.04492188 7.15820312 C355.15094915 4.83738396 355.25301279 2.51645925 355.3515625 0.1953125 C361.57710198 0.09582631 367.80217032 0.02355319 374.02832031 -0.02441406 C376.14266022 -0.04442766 378.25694549 -0.07164722 380.37109375 -0.10644531 C383.42461698 -0.15541691 386.47740328 -0.17775932 389.53125 -0.1953125 C390.46395721 -0.21595764 391.39666443 -0.23660278 392.3576355 -0.25787354 C400.18876524 -0.26050187 406.52092364 1.81180388 413.1640625 5.9453125 C429.29265408 22.53472098 421.3515625 43.37970157 421.3515625 67.1953125 C272.1915625 67.1953125 123.0315625 67.1953125 -30.6484375 67.1953125 C-30.6484375 15.70813301 -30.6484375 15.70813301 -24.2109375 8.4453125 C-22.9425 7.3315625 -22.9425 7.3315625 -21.6484375 6.1953125 C-20.441875 5.1125 -20.441875 5.1125 -19.2109375 4.0078125 C-13.16406842 -0.26924124 -7.11893627 -0.0753525 0 0 Z " fill="#FC5959" transform="translate(60.6484375,61.8046875)"/>
<path d="M0 0 C1.00550652 -0.0098568 1.00550652 -0.0098568 2.03132629 -0.01991272 C4.2491569 -0.03961663 6.46691976 -0.05130373 8.68481445 -0.0612793 C9.4443574 -0.06535482 10.20390034 -0.06943035 10.98645973 -0.07362938 C15.00919954 -0.09448093 19.03190536 -0.10878478 23.0546875 -0.11816406 C27.19616236 -0.12920746 31.33709681 -0.16358544 35.47838116 -0.20333576 C38.67414806 -0.22957018 41.86978775 -0.23786206 45.06565285 -0.24144554 C46.59138437 -0.24629642 48.11711078 -0.25786748 49.64273643 -0.27648354 C66.49386883 -0.46927172 66.49386883 -0.46927172 72.92056274 5.66630554 C77.97545944 12.06254114 77.06513488 20.26480799 76.98950195 27.98950195 C76.99033202 29.52832202 76.9927966 31.06714198 76.99681091 32.60595703 C76.99965886 35.82034206 76.98506744 39.03402644 76.95751953 42.24829102 C76.92343755 46.35054066 76.92946403 50.45153868 76.94818211 54.55384827 C76.95879473 57.72825391 76.94977592 60.90237268 76.93479729 64.07675171 C76.92964618 65.58848212 76.93005963 67.10024287 76.93634224 68.61196899 C76.97475375 83.40545986 76.97475375 83.40545986 72.3605957 90.17700195 C67.12162255 94.34679691 63.28897791 95.30069528 56.70532227 95.35400391 C56.0333783 95.3605751 55.36143433 95.3671463 54.66912842 95.37391663 C52.44649131 95.39361794 50.22392173 95.40530604 48.0012207 95.4152832 C46.86003407 95.42139649 46.86003407 95.42139649 45.69579315 95.42763329 C41.6677223 95.44848209 37.63968538 95.46278805 33.61157227 95.47216797 C29.46103191 95.48322066 25.3110294 95.51761023 21.16067886 95.55733967 C17.96066321 95.58354718 14.76077483 95.59186351 11.56066132 95.59544945 C10.0313123 95.60030598 8.50196861 95.61189336 6.97272491 95.63048744 C-7.96794499 95.80083697 -7.96794499 95.80083697 -13.6394043 91.17700195 C-17.75112173 85.87505052 -18.76285628 82.13519076 -18.81640625 75.52172852 C-18.82297745 74.84978455 -18.82954865 74.17784058 -18.83631897 73.48553467 C-18.85602028 71.26289756 -18.86770838 69.04032798 -18.87768555 66.81762695 C-18.88176107 66.05683586 -18.8858366 65.29604477 -18.89003563 64.5121994 C-18.91088443 60.48412855 -18.92519039 56.45609163 -18.93457031 52.42797852 C-18.94562301 48.27743816 -18.98001258 44.12743565 -19.01974201 39.97708511 C-19.04594952 36.77706946 -19.05426585 33.57718108 -19.05785179 30.37706757 C-19.06270832 28.84771855 -19.07429571 27.31837486 -19.09288979 25.78913116 C-19.26230543 10.93036878 -19.26230543 10.93036878 -14.6394043 5.17700195 C-9.84189532 0.73053022 -6.42618842 0.052163 0 0 Z " fill="#030303" transform="translate(90.639404296875,336.822998046875)"/>
<path d="M0 0 C1.54025009 -0.00269855 3.0804985 -0.006584 4.6207428 -0.01159668 C7.84099629 -0.0174765 11.06080437 -0.00897957 14.28100586 0.00976562 C18.39109556 0.03253564 22.50013915 0.01943576 26.61019039 -0.00452423 C29.78886163 -0.01904016 32.96728853 -0.01434958 36.14596748 -0.00401306 C37.66049895 -0.00136073 39.17505322 -0.00456252 40.68955803 -0.01393127 C55.42266561 -0.08507449 55.42266561 -0.08507449 62.28515625 4.53125 C66.78366124 9.26044755 67.41027739 12.77922984 67.4621582 19.1706543 C67.4687294 19.84099197 67.4753006 20.51132965 67.48207092 21.20198059 C67.50177484 23.41981119 67.51346193 25.63757406 67.5234375 27.85546875 C67.52751303 28.61501169 67.53158855 29.37455463 67.53578758 30.15711403 C67.55663913 34.17985384 67.57094298 38.20255966 67.58032227 42.2253418 C67.59136566 46.36681665 67.62574364 50.50775111 67.66549397 54.64903545 C67.69172838 57.84480236 67.70002026 61.04044204 67.70360374 64.23630714 C67.70845463 65.76203866 67.72002569 67.28776507 67.73864174 68.81339073 C67.91004126 83.79499311 67.91004126 83.79499311 63.28515625 90.53125 C58.04618309 94.70104496 54.21353846 95.65494333 47.62988281 95.70825195 C46.95793884 95.71482315 46.28599487 95.72139435 45.59368896 95.72816467 C43.37105186 95.74786598 41.14848227 95.75955409 38.92578125 95.76953125 C37.78459461 95.77564454 37.78459461 95.77564454 36.6203537 95.78188133 C32.59228285 95.80273013 28.56424592 95.81703609 24.53613281 95.82641602 C20.38559245 95.83746871 16.23558994 95.87185828 12.08523941 95.91158772 C8.88522376 95.93779522 5.68533538 95.94611156 2.48522186 95.94969749 C0.95587284 95.95455403 -0.57347085 95.96614141 -2.10271454 95.98473549 C-17.04338445 96.15508502 -17.04338445 96.15508502 -22.71484375 91.53125 C-26.81891363 86.23915989 -27.83771585 82.49282724 -27.90771484 75.8918457 C-27.91589233 75.22150803 -27.92406982 74.55117035 -27.93249512 73.86051941 C-27.95729913 71.64269897 -27.97385494 69.42494248 -27.98828125 67.20703125 C-27.99360493 66.44748831 -27.9989286 65.68794537 -28.0044136 64.90538597 C-28.03112745 60.88265366 -28.05050527 56.85995214 -28.06494141 52.8371582 C-28.07826244 49.51688984 -28.10608242 46.19723871 -28.14697266 42.87719727 C-28.19644203 38.86010687 -28.22107997 34.84357482 -28.22816849 30.82619286 C-28.23485764 29.30043631 -28.25001868 27.77469107 -28.2740593 26.24910927 C-28.49470527 11.39618856 -28.49470527 11.39618856 -24.21318054 6.01396179 C-17.21207614 -0.91413349 -9.2833145 -0.05733809 0 0 Z " fill="#030303" transform="translate(372.71484375,336.46875)"/>
<path d="M0 0 C0.67355026 -0.0049649 1.34710052 -0.00992981 2.0410614 -0.01504517 C4.26851425 -0.02964508 6.49589585 -0.03646553 8.72338867 -0.04199219 C10.27414451 -0.04774592 11.82490032 -0.05350363 13.37565613 -0.05926514 C16.62804495 -0.06976929 19.8804091 -0.07561562 23.1328125 -0.07910156 C27.29232051 -0.08458168 31.45150042 -0.10860161 35.61090565 -0.13707352 C38.81516968 -0.15573508 42.01935528 -0.16090739 45.22366905 -0.16243744 C46.75661701 -0.16545713 48.28956382 -0.17346257 49.82245827 -0.18662262 C51.97173338 -0.20375557 54.1202148 -0.20178562 56.26953125 -0.1953125 C57.49070145 -0.19895813 58.71187164 -0.20260376 59.970047 -0.20635986 C64.35033448 0.27289421 67.735435 1.67368623 70.97338867 4.69628906 C74.72306244 9.59970861 75.45645912 11.73172929 75.48999023 17.90234375 C75.49743759 18.94171082 75.49743759 18.94171082 75.5050354 20.0020752 C75.51966777 22.29989611 75.52646186 24.59764791 75.53198242 26.89550781 C75.53773436 28.49253339 75.54349209 30.08955894 75.54925537 31.68658447 C75.55976935 35.03910647 75.56560896 38.39160446 75.5690918 41.74414062 C75.57456796 46.03258865 75.5985753 50.3207178 75.62706375 54.60906601 C75.64572457 57.91026726 75.65089763 61.21139237 75.65242767 64.51264191 C75.65544853 66.0930378 75.66345793 67.67343252 75.67661285 69.25377655 C75.69374084 71.47020894 75.69177675 73.68587133 75.68530273 75.90234375 C75.69077118 77.79191803 75.69077118 77.79191803 75.6963501 79.71966553 C75.2236578 84.14629822 73.84821095 87.53353018 70.79370117 90.80566406 C65.89480295 94.55188035 63.75234208 95.28983798 57.58764648 95.33813477 C56.89473511 95.34470596 56.20182373 95.35127716 55.48791504 95.35804749 C53.19010309 95.37778999 50.89235659 95.38944633 48.59448242 95.39941406 C47.80946098 95.40348959 47.02443954 95.40756512 46.21562958 95.41176414 C42.05903892 95.43263091 37.90248133 95.44692886 33.74584961 95.45629883 C29.45730645 95.46735282 25.16928366 95.50173881 20.88092422 95.54147053 C17.57972262 95.5676502 14.27864461 95.57599193 10.97734833 95.57958031 C9.39693444 95.58444435 7.81652601 95.59605326 6.23621368 95.6146183 C4.01960908 95.63903548 1.80434513 95.63804067 -0.41235352 95.63110352 C-1.6720697 95.63696976 -2.93178589 95.642836 -4.22967529 95.64888 C-9.45751551 94.90795639 -12.50686543 92.45127776 -15.98364258 88.59863281 C-18.83299532 84.48290107 -18.809716 81.20282057 -18.84814453 76.30639648 C-18.85800133 75.26681038 -18.85800133 75.26681038 -18.86805725 74.20622253 C-18.88775903 71.91384773 -18.89944572 69.62153834 -18.90942383 67.32910156 C-18.91349936 66.5449972 -18.91757488 65.76089283 -18.92177391 64.95302773 C-18.94262118 60.80291636 -18.95692878 56.65283792 -18.96630859 52.50268555 C-18.97737132 48.22201823 -19.01177302 43.94187098 -19.05148029 39.66138744 C-19.07765683 36.36447703 -19.08600131 33.06769038 -19.08959007 29.7706852 C-19.09445325 28.19306233 -19.10605967 26.6154449 -19.12462807 25.03792381 C-19.14904344 22.82621697 -19.14805103 20.61585379 -19.14111328 18.40405273 C-19.14697952 17.14735275 -19.15284576 15.89065277 -19.15888977 14.59587097 C-18.41718122 9.37272522 -15.95792605 6.32237643 -12.10864258 2.84863281 C-8.04114121 0.03267033 -4.83678665 0.02709718 0 0 Z " fill="#020202" transform="translate(227.671142578125,336.8388671875)"/>
<path d="M0 0 C0.69291138 -0.0049649 1.38582275 -0.00992981 2.09973145 -0.01504517 C4.39755236 -0.02967753 6.69530416 -0.03647163 8.99316406 -0.04199219 C10.59018964 -0.04774412 12.18721519 -0.05350185 13.78424072 -0.05926514 C17.13676272 -0.06977912 20.48926071 -0.07561873 23.84179688 -0.07910156 C28.1302449 -0.08457773 32.41837405 -0.10858507 36.70672226 -0.13707352 C40.00792351 -0.15573433 43.30904862 -0.16090739 46.61029816 -0.16243744 C48.19069405 -0.1654583 49.77108877 -0.1734677 51.3514328 -0.18662262 C53.56786519 -0.20375061 55.78352758 -0.20178651 58 -0.1953125 C59.88957428 -0.20078094 59.88957428 -0.20078094 61.81732178 -0.20635986 C66.24395447 0.26633244 69.63118643 1.64177929 72.90332031 4.69628906 C76.6495366 9.59518728 77.38749423 11.73764816 77.43579102 17.90234375 C77.44236221 18.59525513 77.44893341 19.2881665 77.45570374 20.0020752 C77.47544624 22.29988714 77.48710258 24.59763364 77.49707031 26.89550781 C77.50114584 27.68052925 77.50522137 28.46555069 77.50942039 29.27436066 C77.53028716 33.43095131 77.54458511 37.58750891 77.55395508 41.74414062 C77.56500907 46.03268379 77.59939506 50.32070657 77.63912678 54.60906601 C77.66530645 57.91026761 77.67364818 61.21134563 77.67723656 64.51264191 C77.6821006 66.09305579 77.69370951 67.67346422 77.71227455 69.25377655 C77.73669173 71.47038115 77.73569692 73.6856451 77.72875977 75.90234375 C77.73462601 77.16205994 77.74049225 78.42177612 77.74653625 79.71966553 C77.00561264 84.94750575 74.54893401 87.99685567 70.69628906 91.47363281 C66.58055732 94.32298556 63.30047682 94.29970623 58.40405273 94.33813477 C57.36446663 94.34799156 57.36446663 94.34799156 56.30387878 94.35804749 C54.01150398 94.37774926 51.71919459 94.38943595 49.42675781 94.39941406 C48.64265345 94.40348959 47.85854908 94.40756512 47.05068398 94.41176414 C42.90057261 94.43261142 38.75049417 94.44691901 34.6003418 94.45629883 C30.31967448 94.46736156 26.03952723 94.50176325 21.75904369 94.54147053 C18.46213328 94.56764706 15.16534663 94.57599155 11.86834145 94.57958031 C10.29071858 94.58444348 8.71310115 94.59604991 7.13558006 94.6146183 C4.92387322 94.63903368 2.71351004 94.63804126 0.50170898 94.63110352 C-1.38334099 94.63990288 -1.38334099 94.63990288 -3.30647278 94.64888 C-8.36113596 93.93109668 -12.54767904 91.15304769 -15.74121094 87.16113281 C-17.72938912 83.10119583 -17.9988113 79.75877166 -18.01586914 75.26293945 C-18.02098007 74.58909714 -18.026091 73.91525482 -18.03135681 73.22099304 C-18.04520128 71.00433347 -18.04430003 68.7879866 -18.04199219 66.57128906 C-18.04588187 65.02339056 -18.05021711 63.47549312 -18.05497742 61.92759705 C-18.06242849 58.68712907 -18.0621564 55.44677007 -18.05688477 52.20629883 C-18.05109068 48.06251232 -18.06802474 43.91917286 -18.09122944 39.77546024 C-18.10599151 36.57976187 -18.10683515 33.38417057 -18.10371971 30.18844414 C-18.10423165 28.66108756 -18.10944547 27.1337248 -18.11953163 25.60640144 C-18.13192766 23.46688252 -18.1250865 21.32822676 -18.11352539 19.1887207 C-18.11415482 17.97358292 -18.11478424 16.75844513 -18.11543274 15.50648499 C-17.62662698 11.1368106 -16.22232778 7.74777452 -13.20605469 4.51660156 C-8.30263514 0.76692779 -6.17061446 0.03353111 0 0 Z " fill="#020202" transform="translate(362.7412109375,208.8388671875)"/>
<path d="M0 0 C0.69364151 -0.00540298 1.38728302 -0.01080597 2.10194397 -0.01637268 C4.37301567 -0.02878308 6.64280044 -0.01242398 8.91381836 0.00561523 C10.50369839 0.00546008 12.09357879 0.00396843 13.68345642 0.00120544 C17.00626462 -0.00017503 20.32863932 0.01232142 23.65136719 0.03515625 C27.90051851 0.06356334 32.14895149 0.06079271 36.39815617 0.04806614 C39.67795397 0.0410967 42.95758705 0.04891222 46.23736382 0.06132317 C47.80378016 0.06582376 49.37021427 0.06618668 50.93663216 0.06225777 C53.12869389 0.0593324 55.31978058 0.07591314 57.51171875 0.09765625 C59.37867149 0.10576073 59.37867149 0.10576073 61.28334045 0.11402893 C65.67402408 0.61352117 69.05536413 2.00967472 72.33569336 5.00170898 C76.14188585 9.88992944 76.81748044 12.95683509 76.85229492 19.06518555 C76.85974228 20.05847115 76.85974228 20.05847115 76.86734009 21.07182312 C76.88194077 23.26200402 76.88876116 25.45211242 76.89428711 27.64233398 C76.90004151 29.16827394 76.9057992 30.69421388 76.91156006 32.22015381 C76.92206493 35.42126807 76.92791055 38.62235726 76.93139648 41.82348633 C76.93687173 45.91339636 76.96088089 50.00297189 76.98936844 54.09277725 C77.00805094 57.24646959 77.01320345 60.40008239 77.01473236 63.55382538 C77.01774817 65.06082736 77.02574035 66.5678283 77.03891754 68.0747757 C77.05609183 70.19032224 77.05407044 72.30506514 77.04760742 74.4206543 C77.05307587 76.22243134 77.05307587 76.22243134 77.05865479 78.06060791 C76.56713072 82.66310506 75.27083532 86.66698437 72.19116211 90.24389648 C67.19398953 94.01780286 64.01957924 94.63018379 57.83642578 94.67871094 C56.79683968 94.68856773 56.79683968 94.68856773 55.73625183 94.69862366 C53.44387703 94.71832544 51.15156763 94.73001213 48.85913086 94.73999023 C48.07502649 94.74406576 47.29092213 94.74814129 46.48305702 94.75234032 C42.33294565 94.77318759 38.18286722 94.78749519 34.03271484 94.796875 C29.75204753 94.80793773 25.47190028 94.84233942 21.19141674 94.8820467 C17.89450633 94.90822324 14.59771968 94.91656772 11.30071449 94.92015648 C9.72309163 94.92501965 8.14547419 94.93662608 6.56795311 94.95519447 C4.35624627 94.97960985 2.14588309 94.97861743 -0.06591797 94.97167969 C-1.95096794 94.98047905 -1.95096794 94.98047905 -3.87409973 94.98945618 C-9.09724549 94.24774762 -12.14759427 91.78849246 -15.62133789 87.93920898 C-18.44940474 83.85422353 -18.44706388 80.61347544 -18.48583984 75.75463867 C-18.49241104 75.07294113 -18.49898224 74.39124359 -18.50575256 73.68888855 C-18.52545539 71.43378585 -18.53714228 69.1787497 -18.54711914 66.92358398 C-18.55119467 66.15176033 -18.5552702 65.37993668 -18.55946922 64.58472443 C-18.5803186 60.49829884 -18.59462435 56.4119067 -18.60400391 52.32543945 C-18.61505712 48.11436845 -18.64944717 43.90382749 -18.68917561 39.69294357 C-18.7153806 36.44660491 -18.72369922 33.20039172 -18.72728539 29.9539566 C-18.73214251 28.40227942 -18.74373158 26.85060752 -18.76232338 25.29903412 C-18.93684013 9.76755538 -18.93684013 9.76755538 -14.30883789 4.50170898 C-9.31490465 1.15547262 -6.13188635 0.00081813 0 0 Z " fill="#020202" transform="translate(90.308837890625,208.498291015625)"/>
<path d="M0 0 C3.93792318 2.56821077 6.74612583 5.61725165 8.875 9.875 C9.11328125 11.828125 9.11328125 11.828125 9.1875 14.125 C9.24357422 15.24648437 9.24357422 15.24648437 9.30078125 16.390625 C8.35909128 21.88525641 4.00953594 25.99340813 0.20166016 29.82299805 C-0.71964691 30.75383713 -1.64095398 31.68467621 -2.59017944 32.64372253 C-3.58843596 33.64171764 -4.58703027 34.63937496 -5.5859375 35.63671875 C-6.6198167 36.6744906 -7.65347392 37.71248365 -8.68692017 38.75068665 C-10.84713853 40.91833994 -13.01115602 43.0821125 -15.17773438 45.2434082 C-17.94562747 48.00549902 -20.70196718 50.77880913 -23.45534325 53.55536175 C-25.58458173 55.6993684 -27.72074586 57.83636939 -29.85893631 59.97144508 C-30.87789804 60.9909181 -31.8945171 62.01273848 -32.90867233 63.03699303 C-34.32951886 64.47025064 -35.76100623 65.89293547 -37.19287109 67.31518555 C-38.00243256 68.12537643 -38.81199402 68.93556732 -39.64608765 69.77030945 C-43.33058639 72.89858854 -46.71568527 74.66621263 -51.5 75.375 C-60.6782572 74.10903349 -67.14755081 66.3511888 -73.39038086 60.05566406 C-74.93969785 58.49779001 -76.50687214 56.95958796 -78.07617188 55.421875 C-79.07925597 54.42040234 -80.08124802 53.41783444 -81.08203125 52.4140625 C-81.97897705 51.51896973 -82.87592285 50.62387695 -83.80004883 49.70166016 C-87.64969112 45.02129068 -89.80061835 39.98606601 -89.5390625 33.86328125 C-88.49786396 28.86356375 -85.36537842 25.71090719 -81.25 22.9375 C-76.04325966 21.16720828 -72.56243404 21.37189808 -67.375 23.1875 C-61.33729311 26.43217319 -56.76268621 31.93040808 -52.125 36.875 C-49.04989338 35.50589658 -46.96693894 33.95453077 -44.61328125 31.55859375 C-43.61204224 30.54744507 -43.61204224 30.54744507 -42.59057617 29.51586914 C-41.88006104 28.78875732 -41.1695459 28.06164551 -40.4375 27.3125 C-39.32822144 26.19186157 -39.32822144 26.19186157 -38.1965332 25.04858398 C-35.83450077 22.66212619 -33.47900451 20.26937535 -31.125 17.875 C-28.02657197 14.72343437 -24.92164717 11.57848723 -21.8125 8.4375 C-21.10198486 7.71038818 -20.39146973 6.98327637 -19.65942383 6.23413086 C-18.99193115 5.56003174 -18.32443848 4.88593262 -17.63671875 4.19140625 C-17.05365967 3.59787354 -16.47060059 3.00434082 -15.86987305 2.39282227 C-11.00678721 -1.83745682 -6.03901205 -2.17404434 0 0 Z " fill="#020202" transform="translate(296.125,219.125)"/>
<path d="M0 0 C11.55 0 23.1 0 35 0 C35 11.55 35 23.1 35 35 C23.45 35 11.9 35 0 35 C0 23.45 0 11.9 0 0 Z " fill="#DDE6E5" transform="translate(375,367)"/>
<path d="M0 0 C11.55 0 23.1 0 35 0 C35 11.55 35 23.1 35 35 C23.45 35 11.9 35 0 35 C0 23.45 0 11.9 0 0 Z " fill="#DDE6E5" transform="translate(102,367)"/>
<path d="M0 0 C11.22 0 22.44 0 34 0 C34 11.55 34 23.1 34 35 C22.78 35 11.56 35 0 35 C0 23.45 0 11.9 0 0 Z " fill="#E2EAE9" transform="translate(239,367)"/>
<path d="M0 0 C11.55 0 23.1 0 35 0 C35 11.22 35 22.44 35 34 C23.45 34 11.9 34 0 34 C0 22.78 0 11.56 0 0 Z " fill="#E2EAEA" transform="translate(102,239)"/>
<path d="M0 0 C11.22 0 22.44 0 34 0 C34 11.22 34 22.44 34 34 C22.78 34 11.56 34 0 34 C0 22.78 0 11.56 0 0 Z " fill="#E4EDEC" transform="translate(376,239)"/>
</svg>
