<?xml version="1.0" encoding="UTF-8"?>
<svg version="1.1" xmlns="http://www.w3.org/2000/svg" width="512" height="512">
<path d="M0 0 C1.3122908 -0.01268921 1.3122908 -0.01268921 2.65109253 -0.02563477 C4.0865593 -0.01652573 4.0865593 -0.01652573 5.55102539 -0.00723267 C7.0660112 -0.0151181 7.0660112 -0.0151181 8.61160278 -0.02316284 C11.95745204 -0.0363903 15.30282736 -0.02761483 18.64868164 -0.01748657 C20.96891369 -0.01950651 23.28914513 -0.02241728 25.609375 -0.02618408 C30.47507769 -0.03061117 35.3406153 -0.02416388 40.20629883 -0.01016235 C46.45115803 0.00692957 52.69563046 -0.00290953 58.94047546 -0.02087975 C63.73249235 -0.0317071 68.52441715 -0.02827603 73.31643677 -0.02049637 C75.6193954 -0.01849147 77.92236233 -0.02096375 80.22531128 -0.02793503 C83.44087959 -0.03553212 86.65581673 -0.02396932 89.87133789 -0.00723267 C90.82831573 -0.01330536 91.78529358 -0.01937805 92.77127075 -0.02563477 C93.64613129 -0.01717529 94.52099182 -0.00871582 95.42236328 0 C96.56276817 0.00169662 96.56276817 0.00169662 97.72621155 0.00342751 C100.33585887 0.49975891 101.19233186 1.21017238 102.71118164 3.38095093 C103.08032513 5.68664837 103.08032513 5.68664837 103.07194519 8.44923401 C103.07813118 10.02045265 103.07813118 10.02045265 103.08444214 11.62341309 C103.07365631 12.77211884 103.06287048 13.92082458 103.05175781 15.1043396 C103.05219589 16.31422043 103.05263397 17.52410126 103.05308533 18.77064514 C103.05135211 22.08876259 103.03629651 25.40632162 103.01536345 28.7243402 C102.99662258 32.19167295 102.99484827 35.65901297 102.99128723 39.12638855 C102.98195912 45.69248085 102.95733507 52.25842348 102.92723876 58.82444984 C102.89043093 67.03270794 102.87399853 75.24099029 102.85766602 83.4493103 C102.82843796 98.09330713 102.76834331 112.73697733 102.71118164 127.38095093 C127.13118164 127.38095093 151.55118164 127.38095093 176.71118164 127.38095093 C190.32743008 194.10845413 203.86175389 260.85171882 217.28853393 327.61758316 C218.45653864 333.42545848 219.62474324 339.23329359 220.79307032 345.04110408 C221.0790656 346.46281097 221.36504937 347.88452018 221.65102148 349.30623174 C225.22422456 367.06997123 228.81079342 384.83088649 232.43161201 402.58499527 C233.02961028 405.5173734 233.62706393 408.44986198 234.22434998 411.38238525 C235.80090474 419.12122448 237.37873689 426.85976739 238.96892834 434.59581757 C239.57585791 437.55288532 240.17900092 440.51071574 240.78108788 443.46877289 C241.17940778 445.41906866 241.58279947 447.36832649 241.98640442 449.3175354 C242.21752426 450.45591858 242.4486441 451.59430176 242.68676758 452.7671814 C242.88655212 453.74025238 243.08633667 454.71332336 243.29217529 455.71588135 C243.71118164 458.38095093 243.71118164 458.38095093 243.71118164 463.38095093 C114.35118164 463.38095093 -15.00881836 463.38095093 -148.28881836 463.38095093 C-147.16381003 452.13086764 -147.16381003 452.13086764 -146.07052612 446.71272278 C-145.82477372 445.48260625 -145.57902132 444.25248972 -145.32582188 442.98509693 C-145.05430138 441.65145349 -144.78268627 440.31782931 -144.51098633 438.98422241 C-144.22216369 437.54817465 -143.93376725 436.11204112 -143.64575863 434.67582989 C-142.86128475 430.77030353 -142.07077242 426.8660214 -141.27915597 422.96193743 C-140.43366731 418.78686772 -139.5937382 414.61067935 -138.75309753 410.43463135 C-137.1261765 402.35722018 -135.49401023 394.2808777 -133.85996991 386.20490408 C-132.5399785 379.68035948 -131.22221647 373.15536809 -129.90597534 366.63006592 C-129.71915831 365.70392209 -129.53234128 364.77777827 -129.33986312 363.82356948 C-128.96185826 361.94957858 -128.58385604 360.07558715 -128.20585644 358.20159519 C-116.58766651 300.60821891 -104.90139014 243.02862359 -93.14374542 185.46355534 C-91.14392119 175.6724478 -89.14575094 165.88100292 -87.14767456 156.08953857 C-85.19485983 146.51998133 -83.24181718 136.9504706 -81.28881836 127.38095093 C-56.86881836 127.38095093 -32.44881836 127.38095093 -7.28881836 127.38095093 C-7.32362305 118.46450562 -7.35842773 109.5480603 -7.39428711 100.36141968 C-7.41155716 94.00750337 -7.42693724 87.65360461 -7.43957996 81.29967976 C-7.45622419 73.06166226 -7.47737691 64.82373558 -7.51513672 56.58578491 C-7.54501164 50.06495693 -7.56438681 43.54419737 -7.57108384 37.02330285 C-7.57499938 33.56959427 -7.58421981 30.11608145 -7.60600853 26.66243553 C-7.63011855 22.80969919 -7.63078958 18.95715545 -7.62939453 15.1043396 C-7.64018036 13.95563385 -7.65096619 12.8069281 -7.66207886 11.62341309 C-7.65795486 10.57593399 -7.65383087 9.5284549 -7.64958191 8.44923401 C-7.65234729 7.53758075 -7.65511267 6.62592749 -7.65796185 5.68664837 C-7.28881836 3.38095093 -7.28881836 3.38095093 -6.03432178 1.58799267 C-3.8597458 0.08424083 -2.63246766 0.0039164 0 0 Z M6.71118164 14.38095093 C6.71118164 51.67095093 6.71118164 88.96095093 6.71118164 127.38095093 C17.93118164 127.38095093 29.15118164 127.38095093 40.71118164 127.38095093 C40.71118164 90.09095093 40.71118164 52.80095093 40.71118164 14.38095093 C29.49118164 14.38095093 18.27118164 14.38095093 6.71118164 14.38095093 Z M54.71118164 14.38095093 C54.71118164 51.67095093 54.71118164 88.96095093 54.71118164 127.38095093 C65.93118164 127.38095093 77.15118164 127.38095093 88.71118164 127.38095093 C88.71118164 90.09095093 88.71118164 52.80095093 88.71118164 14.38095093 C77.49118164 14.38095093 66.27118164 14.38095093 54.71118164 14.38095093 Z " fill="#5FD64C" transform="translate(208.288818359375,20.619049072265625)"/>
<path d="M0 0 C0.84810242 -0.0112793 1.69620483 -0.02255859 2.57000732 -0.03417969 C3.49219559 -0.02608276 4.41438385 -0.01798584 5.36451721 -0.00964355 C6.34218048 -0.01665283 7.31984375 -0.02366211 8.32713318 -0.03088379 C11.56066752 -0.04849651 14.79332739 -0.03682811 18.02687073 -0.02331543 C20.27362232 -0.02600961 22.52037277 -0.02989141 24.76712036 -0.03491211 C29.47727045 -0.0408118 34.18711721 -0.03222957 38.89723206 -0.0135498 C44.93459218 0.00922655 50.97124055 -0.00387254 57.00857449 -0.02783966 C61.64885823 -0.0422959 66.28897333 -0.03769214 70.92926216 -0.02732849 C73.15520881 -0.02466006 75.38117076 -0.02793502 77.60709953 -0.0372467 C80.71935931 -0.04740759 83.83046813 -0.03191611 86.94264221 -0.00964355 C87.86280624 -0.01774048 88.78297028 -0.0258374 89.73101807 -0.03417969 C91.00740143 -0.01726074 91.00740143 -0.01726074 92.30957031 0 C93.41207705 0.00226215 93.41207705 0.00226215 94.53685665 0.00457001 C96.71827698 0.50793457 96.71827698 0.50793457 101.71827698 4.50793457 C101.71827698 22.98793457 101.71827698 41.46793457 101.71827698 60.50793457 C143.95827698 60.50793457 186.19827698 60.50793457 229.71827698 60.50793457 C231.71176728 68.48189579 233.58878397 76.39331493 235.19874573 84.44152832 C235.41646133 85.52249283 235.63417694 86.60345734 235.85848999 87.71717834 C236.31281864 89.97810819 236.76565986 92.2393374 237.21705627 94.50085449 C237.90909997 97.96205422 238.60937785 101.42152424 239.31007385 104.88098145 C239.75263055 107.08856368 240.19470515 109.29624263 240.63624573 111.50402832 C240.95023567 113.04938515 240.95023567 113.04938515 241.27056885 114.6259613 C241.46109329 115.58788895 241.65161774 116.54981659 241.84791565 117.54089355 C242.01651596 118.38184067 242.18511627 119.22278778 242.35882568 120.08921814 C242.71827698 122.50793457 242.71827698 122.50793457 242.71827698 127.50793457 C113.35827698 127.50793457 -16.00172302 127.50793457 -149.28172302 127.50793457 C-148.15655393 116.25624367 -148.15655393 116.25624367 -147.17430115 111.35559082 C-146.9573761 110.26166016 -146.74045105 109.16772949 -146.51695251 108.04064941 C-146.28463928 106.89547852 -146.05232605 105.75030762 -145.81297302 104.57043457 C-145.57260315 103.36854492 -145.33223328 102.16665527 -145.08457947 100.92834473 C-144.57918889 98.40672384 -144.07146187 95.8855702 -143.56150818 93.36486816 C-142.77873356 89.49314825 -142.00429282 85.61982786 -141.23094177 81.74621582 C-140.73794022 79.29169066 -140.2444675 76.83726008 -139.75047302 74.38293457 C-139.51815979 73.22156982 -139.28584656 72.06020508 -139.04649353 70.86364746 C-138.82956848 69.79493408 -138.61264343 68.7262207 -138.3891449 67.62512207 C-138.1989679 66.68265625 -138.00879089 65.74019043 -137.81285095 64.76916504 C-137.28172302 62.50793457 -137.28172302 62.50793457 -136.28172302 60.50793457 C-94.04172302 60.50793457 -51.80172302 60.50793457 -8.28172302 60.50793457 C-8.28172302 42.02793457 -8.28172302 23.54793457 -8.28172302 4.50793457 C-3.78155153 0.00776307 -3.78155153 0.00776307 0 0 Z " fill="#FDE7A7" transform="translate(209.28172302246094,356.4920654296875)"/>
<path d="M0 0 C1.3122908 -0.01268921 1.3122908 -0.01268921 2.65109253 -0.02563477 C4.0865593 -0.01652573 4.0865593 -0.01652573 5.55102539 -0.00723267 C7.0660112 -0.0151181 7.0660112 -0.0151181 8.61160278 -0.02316284 C11.95745204 -0.0363903 15.30282736 -0.02761483 18.64868164 -0.01748657 C20.96891369 -0.01950651 23.28914513 -0.02241728 25.609375 -0.02618408 C30.47507769 -0.03061117 35.3406153 -0.02416388 40.20629883 -0.01016235 C46.45115803 0.00692957 52.69563046 -0.00290953 58.94047546 -0.02087975 C63.73249235 -0.0317071 68.52441715 -0.02827603 73.31643677 -0.02049637 C75.6193954 -0.01849147 77.92236233 -0.02096375 80.22531128 -0.02793503 C83.44087959 -0.03553212 86.65581673 -0.02396932 89.87133789 -0.00723267 C90.82831573 -0.01330536 91.78529358 -0.01937805 92.77127075 -0.02563477 C93.64613129 -0.01717529 94.52099182 -0.00871582 95.42236328 0 C96.56276817 0.00169662 96.56276817 0.00169662 97.72621155 0.00342751 C100.33585887 0.49975891 101.19233186 1.21017238 102.71118164 3.38095093 C103.08032513 5.68664837 103.08032513 5.68664837 103.07194519 8.44923401 C103.07813118 10.02045265 103.07813118 10.02045265 103.08444214 11.62341309 C103.07365631 12.77211884 103.06287048 13.92082458 103.05175781 15.1043396 C103.05219589 16.31422043 103.05263397 17.52410126 103.05308533 18.77064514 C103.05135211 22.08876259 103.03629651 25.40632162 103.01536345 28.7243402 C102.99662258 32.19167295 102.99484827 35.65901297 102.99128723 39.12638855 C102.98195912 45.69248085 102.95733507 52.25842348 102.92723876 58.82444984 C102.89043093 67.03270794 102.87399853 75.24099029 102.85766602 83.4493103 C102.82843796 98.09330713 102.76834331 112.73697733 102.71118164 127.38095093 C127.13118164 127.38095093 151.55118164 127.38095093 176.71118164 127.38095093 C178.85618164 137.87907593 181.00118164 148.37720093 183.21118164 159.19345093 C183.88987305 162.50738892 184.56856445 165.8213269 185.26782227 169.23568726 C185.80125764 171.85307157 186.33447578 174.47050018 186.86743164 177.08798218 C187.00725464 177.76850143 187.14707764 178.44902069 187.2911377 179.15016174 C187.702763 181.15468693 188.1106986 183.15993113 188.51782227 185.16537476 C188.74876587 186.29566605 188.97970947 187.42595734 189.21765137 188.59049988 C189.71118164 191.38095093 189.71118164 191.38095093 189.71118164 194.38095093 C95.99118164 194.38095093 2.27118164 194.38095093 -94.28881836 194.38095093 C-92.93977929 185.61219698 -91.4804005 176.97320128 -89.68725586 168.29891968 C-89.47302979 167.25046875 -89.25880371 166.20201782 -89.03808594 165.12179565 C-88.25010872 161.26997432 -87.45665857 157.41927422 -86.66381836 153.56845093 C-84.89006836 144.92657593 -83.11631836 136.28470093 -81.28881836 127.38095093 C-56.86881836 127.38095093 -32.44881836 127.38095093 -7.28881836 127.38095093 C-7.32362305 118.46450562 -7.35842773 109.5480603 -7.39428711 100.36141968 C-7.41155716 94.00750337 -7.42693724 87.65360461 -7.43957996 81.29967976 C-7.45622419 73.06166226 -7.47737691 64.82373558 -7.51513672 56.58578491 C-7.54501164 50.06495693 -7.56438681 43.54419737 -7.57108384 37.02330285 C-7.57499938 33.56959427 -7.58421981 30.11608145 -7.60600853 26.66243553 C-7.63011855 22.80969919 -7.63078958 18.95715545 -7.62939453 15.1043396 C-7.64018036 13.95563385 -7.65096619 12.8069281 -7.66207886 11.62341309 C-7.65795486 10.57593399 -7.65383087 9.5284549 -7.64958191 8.44923401 C-7.65234729 7.53758075 -7.65511267 6.62592749 -7.65796185 5.68664837 C-7.28881836 3.38095093 -7.28881836 3.38095093 -6.03432178 1.58799267 C-3.8597458 0.08424083 -2.63246766 0.0039164 0 0 Z M6.71118164 14.38095093 C6.71118164 51.67095093 6.71118164 88.96095093 6.71118164 127.38095093 C17.93118164 127.38095093 29.15118164 127.38095093 40.71118164 127.38095093 C40.71118164 90.09095093 40.71118164 52.80095093 40.71118164 14.38095093 C29.49118164 14.38095093 18.27118164 14.38095093 6.71118164 14.38095093 Z M54.71118164 14.38095093 C54.71118164 51.67095093 54.71118164 88.96095093 54.71118164 127.38095093 C65.93118164 127.38095093 77.15118164 127.38095093 88.71118164 127.38095093 C88.71118164 90.09095093 88.71118164 52.80095093 88.71118164 14.38095093 C77.49118164 14.38095093 66.27118164 14.38095093 54.71118164 14.38095093 Z " fill="#60D54D" transform="translate(208.288818359375,20.619049072265625)"/>
<path d="M0 0 C43.23 0 86.46 0 131 0 C141 46.66666667 141 46.66666667 141 53 C94.47 53 47.94 53 0 53 C0 35.51 0 18.02 0 0 Z " fill="#5FD64D" transform="translate(311,431)"/>
<path d="M0 0 C43.23 0 86.46 0 131 0 C131 17.49 131 34.98 131 53 C84.47 53 37.94 53 -10 53 C-9.32946767 46.29467669 -8.53059192 39.9369875 -7.1875 33.37890625 C-7.01371826 32.51232895 -6.83993652 31.64575165 -6.66088867 30.75291443 C-6.29670803 28.9416697 -5.93023108 27.13088525 -5.56152344 25.32055664 C-4.99666608 22.54612464 -4.43916662 19.77028903 -3.8828125 16.99414062 C-3.52646556 15.22647699 -3.16970952 13.45889577 -2.8125 11.69140625 C-2.64580811 10.86330948 -2.47911621 10.03521271 -2.30737305 9.18202209 C-1.66897626 6.05510331 -1.01026838 3.03080513 0 0 Z " fill="#60D64C" transform="translate(70,431)"/>
<path d="M0 0 C1.3122908 -0.01268921 1.3122908 -0.01268921 2.65109253 -0.02563477 C4.0865593 -0.01652573 4.0865593 -0.01652573 5.55102539 -0.00723267 C7.0660112 -0.0151181 7.0660112 -0.0151181 8.61160278 -0.02316284 C11.95745204 -0.0363903 15.30282736 -0.02761483 18.64868164 -0.01748657 C20.96891369 -0.01950651 23.28914513 -0.02241728 25.609375 -0.02618408 C30.47507769 -0.03061117 35.3406153 -0.02416388 40.20629883 -0.01016235 C46.45115803 0.00692957 52.69563046 -0.00290953 58.94047546 -0.02087975 C63.73249235 -0.0317071 68.52441715 -0.02827603 73.31643677 -0.02049637 C75.6193954 -0.01849147 77.92236233 -0.02096375 80.22531128 -0.02793503 C83.44087959 -0.03553212 86.65581673 -0.02396932 89.87133789 -0.00723267 C90.82831573 -0.01330536 91.78529358 -0.01937805 92.77127075 -0.02563477 C93.64613129 -0.01717529 94.52099182 -0.00871582 95.42236328 0 C96.56276817 0.00169662 96.56276817 0.00169662 97.72621155 0.00342751 C100.33585887 0.49975891 101.19233186 1.21017238 102.71118164 3.38095093 C103.08032513 5.68664837 103.08032513 5.68664837 103.07194519 8.44923401 C103.07606918 9.4967131 103.08019318 10.5441922 103.08444214 11.62341309 C103.07365631 12.77211884 103.06287048 13.92082458 103.05175781 15.1043396 C103.05241493 16.91916084 103.05241493 16.91916084 103.05308533 18.77064514 C103.05135211 22.08876259 103.03629651 25.40632162 103.01536345 28.7243402 C102.99662258 32.19167295 102.99484827 35.65901297 102.99128723 39.12638855 C102.98195912 45.69248085 102.95733507 52.25842348 102.92723876 58.82444984 C102.89371851 66.29956766 102.87721474 73.77469259 102.86215246 81.24986684 C102.8307861 96.62698394 102.77740726 112.00394227 102.71118164 127.38095093 C98.09118164 127.38095093 93.47118164 127.38095093 88.71118164 127.38095093 C88.71118164 90.09095093 88.71118164 52.80095093 88.71118164 14.38095093 C77.49118164 14.38095093 66.27118164 14.38095093 54.71118164 14.38095093 C54.71118164 51.67095093 54.71118164 88.96095093 54.71118164 127.38095093 C50.09118164 127.38095093 45.47118164 127.38095093 40.71118164 127.38095093 C40.71118164 90.09095093 40.71118164 52.80095093 40.71118164 14.38095093 C29.49118164 14.38095093 18.27118164 14.38095093 6.71118164 14.38095093 C6.71118164 51.67095093 6.71118164 88.96095093 6.71118164 127.38095093 C2.09118164 127.38095093 -2.52881836 127.38095093 -7.28881836 127.38095093 C-7.35822564 111.26518789 -7.4117818 95.14948635 -7.44425488 79.03361034 C-7.45973256 71.55095015 -7.48083916 64.06838446 -7.51513672 56.58578491 C-7.54501164 50.06495693 -7.56438681 43.54419737 -7.57108384 37.02330285 C-7.57499938 33.56959427 -7.58421981 30.11608145 -7.60600853 26.66243553 C-7.63011855 22.80969919 -7.63078958 18.95715545 -7.62939453 15.1043396 C-7.64018036 13.95563385 -7.65096619 12.8069281 -7.66207886 11.62341309 C-7.65795486 10.57593399 -7.65383087 9.5284549 -7.64958191 8.44923401 C-7.65234729 7.53758075 -7.65511267 6.62592749 -7.65796185 5.68664837 C-7.28881836 3.38095093 -7.28881836 3.38095093 -6.03432178 1.58799267 C-3.8597458 0.08424083 -2.63246766 0.0039164 0 0 Z " fill="#FEE7A7" transform="translate(208.288818359375,20.619049072265625)"/>
<path d="M0 0 C1.26617744 0.00056958 1.26617744 0.00056958 2.55793422 0.00115067 C3.52830924 -0.00084038 4.49868426 -0.00283143 5.49846458 -0.00488281 C6.57723537 -0.00196997 7.65600615 0.00094287 8.76746696 0.00394398 C9.90354894 0.00308955 11.03963092 0.00223513 12.21013963 0.00135481 C15.37753285 -0.00001331 18.5448857 0.00313393 21.71227413 0.00813287 C25.12264972 0.01243425 28.53302327 0.01099118 31.9434008 0.0102306 C37.85675645 0.00970517 43.7701011 0.01285399 49.68345398 0.01846844 C58.2332656 0.02658081 66.78307188 0.02919839 75.33288693 0.03045643 C89.2029646 0.03264737 103.0730364 0.03930857 116.94311088 0.04875904 C130.4199986 0.05793209 143.89688473 0.06501345 157.37377495 0.06926686 C158.20389699 0.06952958 159.03401904 0.0697923 159.8892963 0.07006299 C164.05359747 0.07136798 168.21789864 0.0726317 172.38219982 0.07387489 C206.95255652 0.08424879 241.5229064 0.10186823 276.09325737 0.1241985 C277.92415695 5.00659737 278.41586057 8.70502411 279.09325737 14.1241985 C185.37325737 14.1241985 91.65325737 14.1241985 -4.90674263 14.1241985 C-2.76146161 0.17987188 -2.76146161 0.17987188 0 0 Z " fill="#E9EDF3" transform="translate(118.90674263238907,200.8758015036583)"/>
<path d="M0 0 C42.24 0 84.48 0 128 0 C131 12 131 12 131 14 C87.77 14 44.54 14 0 14 C0 9.38 0 4.76 0 0 Z " fill="#E9EDF3" transform="translate(311,417)"/>
<path d="M0 0 C42.24 0 84.48 0 128 0 C128 4.62 128 9.24 128 14 C84.77 14 41.54 14 -3 14 C-1 2 -1 2 0 0 Z " fill="#E9EDF3" transform="translate(73,417)"/>
<path d="M0 0 C11.22 0 22.44 0 34 0 C34 17.49 34 34.98 34 53 C22.78 53 11.56 53 0 53 C0 35.51 0 18.02 0 0 Z " fill="#60D64D" transform="translate(263,431)"/>
<path d="M0 0 C11.22 0 22.44 0 34 0 C34 17.49 34 34.98 34 53 C22.78 53 11.56 53 0 53 C0 35.51 0 18.02 0 0 Z " fill="#60D64D" transform="translate(215,431)"/>
<path d="M0 0 C11.22 0 22.44 0 34 0 C34 15.18 34 30.36 34 46 C22.78 46 11.56 46 0 46 C0 30.82 0 15.64 0 0 Z " fill="#60D64D" transform="translate(263,371)"/>
<path d="M0 0 C11.22 0 22.44 0 34 0 C34 15.18 34 30.36 34 46 C22.78 46 11.56 46 0 46 C0 30.82 0 15.64 0 0 Z " fill="#60D64D" transform="translate(215,371)"/>
<path d="M0 0 C11.22 0 22.44 0 34 0 C34 4.62 34 9.24 34 14 C22.78 14 11.56 14 0 14 C0 9.38 0 4.76 0 0 Z " fill="#EAEEF4" transform="translate(263,417)"/>
<path d="M0 0 C11.22 0 22.44 0 34 0 C34 4.62 34 9.24 34 14 C22.78 14 11.56 14 0 14 C0 9.38 0 4.76 0 0 Z " fill="#EAEEF4" transform="translate(215,417)"/>
</svg>
