<?xml version="1.0" encoding="UTF-8"?>
<svg version="1.1" xmlns="http://www.w3.org/2000/svg" width="512" height="512">
<path d="M0 0 C0.82084579 -0.00511093 1.64169159 -0.01022186 2.4874115 -0.01548767 C5.17291775 -0.02926883 7.85816399 -0.02843539 10.54370117 -0.02612305 C12.43023268 -0.03001671 14.31676332 -0.03435274 16.20329285 -0.03910828 C20.14792732 -0.04654618 24.09247226 -0.04629721 28.03710938 -0.04101562 C33.06350973 -0.03522893 38.08954065 -0.05214459 43.11588001 -0.0753603 C47.0100871 -0.09017558 50.90420684 -0.09095871 54.79843712 -0.08785057 C56.65018125 -0.08836003 58.50193077 -0.09352625 60.35364723 -0.10366249 C73.560846 -0.16708692 85.38877827 0.69714131 97.33666992 6.8996582 C98.34455566 7.41363159 98.34455566 7.41363159 99.37280273 7.93798828 C106.39130216 11.65243278 113.35029493 16.24103793 118.05981445 22.73803711 C120.55274417 25.59377468 122.45801576 26.59309241 125.93823242 28.03637695 C127.60789062 28.74685181 127.60789062 28.74685181 129.3112793 29.47167969 C130.4952832 29.9635376 131.67928711 30.45539551 132.89916992 30.9621582 C159.03134753 42.15614669 181.92256377 56.97392363 202.93041992 76.15356445 C205.07341305 78.09297323 207.2576163 79.96795119 209.46166992 81.8371582 C212.76041865 84.7136671 215.62200727 87.79870574 218.44604492 91.13793945 C220.39100412 93.41121441 222.42277647 95.5854147 224.46166992 97.7746582 C268.50085432 146.88095688 288.30080941 213.00785619 285.13354492 278.16772461 C281.34283364 338.1621921 255.8204104 394.12740654 214.27416992 437.2746582 C213.77240234 437.79833984 213.27063477 438.32202148 212.75366211 438.86157227 C205.99257945 445.88353271 198.96479054 452.26335252 191.27416992 458.2746582 C190.33702148 459.04036133 189.39987305 459.80606445 188.43432617 460.5949707 C174.63335628 471.64285136 159.28688998 480.90336083 143.26196289 488.35083008 C141.90315889 488.98233515 140.54815072 489.62205541 139.1965332 490.26879883 C120.10647216 499.39294955 100.02208533 505.27962477 79.27416992 509.2746582 C78.45126465 509.43981934 77.62835938 509.60498047 76.78051758 509.77514648 C49.2004066 515.07838119 16.78170787 514.85538911 -10.72583008 509.2746582 C-11.74128906 509.07598145 -12.75674805 508.87730469 -13.80297852 508.67260742 C-52.06307084 501.01944242 -87.98205297 485.46834487 -118.72583008 461.2746582 C-119.69520508 460.51668945 -120.66458008 459.7587207 -121.66333008 458.9777832 C-136.66030905 446.96315801 -151.00131267 433.53065676 -162.72583008 418.2746582 C-163.14687012 417.7300293 -163.56791016 417.18540039 -164.00170898 416.62426758 C-204.72909639 363.62959481 -223.71059797 296.31931316 -215.08081055 229.83276367 C-211.73687323 205.73525663 -205.50034644 182.5672471 -195.72583008 160.2746582 C-195.41564941 159.55407227 -195.10546875 158.83348633 -194.78588867 158.09106445 C-184.62362697 134.66036059 -170.26301422 112.8372019 -152.72583008 94.2746582 C-151.5745325 92.94604024 -150.4285313 91.61281103 -149.28833008 90.2746582 C-141.80825635 81.72845902 -133.60845574 74.3266121 -124.72583008 67.2746582 C-123.97172852 66.64172852 -123.21762695 66.00879883 -122.44067383 65.35668945 C-102.35953304 48.65110921 -78.39923111 35.52174574 -54.03173828 26.24951172 C-51.35868492 25.11944268 -50.44130521 24.01965871 -48.72583008 21.7121582 C-37.01985759 7.78129245 -17.95675425 -0.05908249 0 0 Z " fill="#EECDC6" transform="translate(221.725830078125,-0.274658203125)"/>
<path d="M0 0 C0.0093457 1.1238208 0.01869141 2.2476416 0.02832031 3.40551758 C0.06855874 7.62351365 0.1344069 11.84080599 0.20751953 16.05834961 C0.23553465 17.87466305 0.25684474 19.691094 0.27099609 21.50756836 C0.39740507 36.82412228 2.11116909 49.11466339 12.7421875 60.9375 C20.87634789 68.76789507 31.95256101 72.43969403 43.125 72.2734375 C55.03594069 71.14060347 65.18222693 65.86072065 72.875 56.75 C78.99003441 48.34182769 81.10045549 38.7066268 81.31640625 28.515625 C81.3475779 27.29223419 81.3475779 27.29223419 81.37937927 26.04412842 C81.44461297 23.44616895 81.50363768 20.84811087 81.5625 18.25 C81.60571014 16.485667 81.64932522 14.72134387 81.69335938 12.95703125 C81.80026745 8.63812116 81.90160827 4.31911216 82 0 C86.54092031 0.5808527 90.84799551 1.39874228 95.25390625 2.63671875 C96.42800049 2.96422119 97.60209473 3.29172363 98.81176758 3.62915039 C100.04950928 3.97840576 101.28725098 4.32766113 102.5625 4.6875 C103.8548787 5.04680202 105.1474428 5.40543775 106.44018555 5.76342773 C112.47641826 7.43768963 118.50316484 9.14028802 124.515625 10.8984375 C125.99373657 11.32249878 125.99373657 11.32249878 127.50170898 11.75512695 C129.32002111 12.27741986 131.134967 12.8116423 132.94555664 13.36010742 C141.03362328 15.66336333 146.36679328 14.73820513 153.98828125 11.46875 C161.0824738 8.62820788 167.59750795 8.29896868 175.10327148 8.45800781 C177.19675071 8.50018638 179.28702212 8.49902611 181.38085938 8.4921875 C190.78426126 8.53578669 199.80332637 9.26741122 207.75 14.75 C208.42546875 15.19859375 209.1009375 15.6471875 209.796875 16.109375 C217.0889217 22.36708884 220.6536715 29.89478689 224.5625 38.5625 C225.1663855 39.88048648 225.77088876 41.19819006 226.37597656 42.515625 C230.77325453 52.12954141 235.03566034 61.80468791 239.25 71.5 C239.52812531 72.13938507 239.80625061 72.77877014 240.09280396 73.43753052 C247.12899564 89.65443926 247.12899564 89.65443926 247.45703125 95.7578125 C247.51528076 96.625271 247.57353027 97.49272949 247.63354492 98.38647461 C247.6926001 99.29018799 247.75165527 100.19390137 247.8125 101.125 C248.39581377 108.75553504 249.43359586 114.72809593 253.07421875 121.52734375 C254.34152622 124.91217763 254.0710197 126.53717741 253 130 C251.3677305 132.88185381 249.46390591 135.52380121 247.5 138.1875 C246.95609619 138.93926514 246.41219238 139.69103027 245.85180664 140.46557617 C232.19636688 159.1888486 216.2854639 176.70732863 198 191 C197.06285156 191.76570312 196.12570312 192.53140625 195.16015625 193.3203125 C181.35918636 204.36819316 166.01272006 213.62870262 149.98779297 221.07617188 C148.62898897 221.70767695 147.2739808 222.3473972 145.92236328 222.99414062 C126.83230224 232.11829134 106.74791541 238.00496657 86 242 C85.17709473 242.16516113 84.35418945 242.33032227 83.50634766 242.50048828 C55.92623667 247.80372298 23.50753794 247.5807309 -4 242 C-5.01545898 241.80132324 -6.03091797 241.60264648 -7.07714844 241.39794922 C-45.33724076 233.74478421 -81.2562229 218.19368666 -112 194 C-113.4540625 192.86304688 -113.4540625 192.86304688 -114.9375 191.703125 C-134.5880519 175.96035331 -151.13366754 158.14880472 -165.77246094 137.69482422 C-166.85768877 136.1964846 -167.97719729 134.72310465 -169.1015625 133.25390625 C-173.10818464 127.82941555 -173.10818464 127.82941555 -172.625 124.125 C-172.08875 123.09375 -171.5525 122.0625 -171 121 C-167.60537281 113.5453987 -166.36119978 106.54188921 -165.94726562 98.42895508 C-164.97552882 84.68853818 -157.80195208 71.80319425 -152.0625 59.5 C-150.67556714 56.51171673 -149.29233214 53.521736 -147.91015625 50.53125 C-147.40853218 49.44946472 -147.40853218 49.44946472 -146.89677429 48.3458252 C-144.23507067 42.58026526 -141.74069381 36.75549235 -139.31591797 30.88671875 C-134.78906502 20.95619754 -126.93299253 14.21072509 -117 10 C-111.64200671 8.21400224 -105.83599103 8.77425006 -100.22387695 8.75976562 C-97.9698281 8.75013808 -95.71672251 8.71914314 -93.46289062 8.6875 C-84.31728387 8.62031534 -76.07609954 9.03894193 -68 13.75 C-60.31114749 16.95368855 -50.57452705 13.02534951 -42.9375 10.875 C-41.82294434 10.56876709 -40.70838867 10.26253418 -39.56005859 9.94702148 C-33.66061725 8.32080317 -27.77295058 6.6537742 -21.88671875 4.98046875 C-20.75177979 4.65900879 -19.61684082 4.33754883 -18.44750977 4.00634766 C-16.27061308 3.387942 -14.09524769 2.76411434 -11.92163086 2.13427734 C-10.44835327 1.7139624 -10.44835327 1.7139624 -8.9453125 1.28515625 C-7.65391357 0.91209351 -7.65391357 0.91209351 -6.33642578 0.53149414 C-4 0 -4 0 0 0 Z " fill="#F8EDCE" transform="translate(215,267)"/>
<path d="M0 0 C0.99 0.495 0.99 0.495 2 1 C1.55269531 1.59425781 1.10539063 2.18851563 0.64453125 2.80078125 C-9.41107142 16.58703395 -13.41019378 30.63865945 -13.51171875 47.64453125 C-13.52966995 48.78033127 -13.54762115 49.91613129 -13.56611633 51.08634949 C-13.61966095 54.66169684 -13.65393437 58.23691514 -13.6875 61.8125 C-13.72072243 64.2584813 -13.75521652 66.70444568 -13.79101562 69.15039062 C-13.87535435 75.10014439 -13.94393659 81.04991611 -14 87 C-14.88550537 87.0424585 -15.77101074 87.08491699 -16.68334961 87.12866211 C-17.84874268 87.19835205 -19.01413574 87.26804199 -20.21484375 87.33984375 C-21.36847412 87.40292725 -22.52210449 87.46601074 -23.71069336 87.53100586 C-28.57651942 88.22478244 -31.90354824 90.21385133 -35 94 C-39.80112407 101.26170015 -39.57063085 107.97103621 -39.4375 116.5 C-39.44458984 117.78003906 -39.45167969 119.06007813 -39.45898438 120.37890625 C-39.39104754 131.43526966 -39.39104754 131.43526966 -34.3515625 141.0234375 C-27.69857524 146.23143205 -22.36592588 147.38270838 -14 148 C-13.90203125 148.98097656 -13.8040625 149.96195313 -13.703125 150.97265625 C-11.14938142 174.71268371 -3.65981678 194.55972333 13 212 C13.54011719 212.61488281 14.08023438 213.22976562 14.63671875 213.86328125 C23.23049823 223.27963911 35.44231302 229.10430203 47 234 C47 236.31 47 238.62 47 241 C46.13461861 241.23430473 46.13461861 241.23430473 45.25175476 241.4733429 C39.19994907 243.11190958 33.14818164 244.75061752 27.09643555 246.3894043 C24.8435155 246.99946594 22.59058598 247.60949261 20.33764648 248.21948242 C17.08314511 249.1006547 13.8286788 249.98195637 10.57421875 250.86328125 C9.58105148 251.13215652 8.58788422 251.4010318 7.56462097 251.67805481 C6.60445572 251.93809799 5.64429047 252.19814117 4.6550293 252.46606445 C3.25865738 252.84367416 3.25865738 252.84367416 1.83407593 253.22891235 C-0.13014708 253.76333279 -2.09292918 254.3030667 -4.05453491 254.84701538 C-5.03451447 255.11817169 -6.01449402 255.389328 -7.02416992 255.66870117 C-8.34344734 256.03628792 -8.34344734 256.03628792 -9.68937683 256.41130066 C-15.40748256 257.86815659 -18.7354954 256.95977541 -23.6796875 254.0703125 C-31.55115013 250.43936846 -39.71952886 250.6275225 -48.20825195 250.62939453 C-50.42932584 250.62501611 -52.64841616 250.58859963 -54.86914062 250.55078125 C-62.61640498 250.48891351 -69.24795663 250.77182119 -76 255 C-77.23169922 255.75603516 -77.23169922 255.75603516 -78.48828125 256.52734375 C-79.09027344 256.99269531 -79.69226563 257.45804687 -80.3125 257.9375 C-80.92738281 258.40027344 -81.54226562 258.86304688 -82.17578125 259.33984375 C-97.35319287 273.15226332 -104.26500535 300.58561865 -112.1875 318.9375 C-112.56181152 319.80060791 -112.93612305 320.66371582 -113.32177734 321.55297852 C-113.66289551 322.34889404 -114.00401367 323.14480957 -114.35546875 323.96484375 C-114.65090576 324.6518335 -114.94634277 325.33882324 -115.25073242 326.04663086 C-116.53806493 329.40275578 -117.12529825 332.5849545 -117.39453125 336.16015625 C-118.31004583 347.03855825 -119.99157891 356.18438903 -125 366 C-125.66 366 -126.32 366 -127 366 C-161.69123007 306.03269625 -172.35655119 236.92270352 -154.62597656 169.57128906 C-151.27189713 157.33282531 -147.09324442 145.61608409 -142 134 C-141.68981934 133.27941406 -141.37963867 132.55882812 -141.06005859 131.81640625 C-130.89779689 108.38570239 -116.53718414 86.5625437 -99 68 C-97.84870242 66.67138204 -96.70270122 65.33815282 -95.5625 64 C-88.08242627 55.45380082 -79.88262566 48.0519539 -71 41 C-70.24589844 40.36707031 -69.49179688 39.73414063 -68.71484375 39.08203125 C-48.95052075 22.64001297 -24.43706427 8.14568809 0 0 Z " fill="#05A1F8" transform="translate(168,26)"/>
<path d="M0 0 C22.99437017 8.83626452 44.48085883 19.78943179 64 35 C64.83273437 35.64195313 65.66546875 36.28390625 66.5234375 36.9453125 C71.74661605 41.04349875 76.72117909 45.36558074 81.62109375 49.84375 C83.77510509 51.79615436 85.97027726 53.68277359 88.1875 55.5625 C91.48624873 58.43900889 94.34783734 61.52404753 97.171875 64.86328125 C99.1168342 67.13655621 101.14860655 69.31075649 103.1875 71.5 C147.2266844 120.60629868 167.02663949 186.73319799 163.859375 251.89306641 C161.48616985 289.45308312 151.44127058 338.89045319 126 368 C121.40116073 358.58539508 119.22517448 350.32758419 118.84619141 339.85083008 C118.44950639 332.25556545 116.00443459 325.92382348 113 319 C112.70018219 318.30459106 112.40036438 317.60918213 112.09146118 316.8927002 C110.03079392 312.13275362 107.92520265 307.39386801 105.79907227 302.6628418 C104.69487779 300.20392947 103.59807099 297.74181833 102.50195312 295.27929688 C99.03753534 287.52459283 95.50163369 279.80574453 91.76953125 272.17578125 C91.4634343 271.53690475 91.15733734 270.89802826 90.84196472 270.23979187 C87.80086688 264.12344835 84.14452449 259.25299986 78.1875 255.75 C77.39730469 255.27046875 76.60710937 254.7909375 75.79296875 254.296875 C67.36038284 250.38132462 58.6216417 250.52832849 49.5 250.5 C48.78512421 250.49499481 48.07024841 250.48998962 47.33370972 250.48483276 C37.48298154 250.45509983 29.12470004 251.16647849 20.25390625 255.78515625 C13.70245066 258.23113787 6.94201893 255.92747128 0.4375 254 C-1.10794001 253.5555272 -2.65352617 253.11156241 -4.19921875 252.66796875 C-5.08399902 252.41192871 -5.9687793 252.15588867 -6.88037109 251.89208984 C-10.62943602 250.82000632 -14.38653239 249.7785226 -18.14453125 248.73828125 C-20.32586492 248.1324755 -22.50706158 247.52617921 -24.6882019 246.91967773 C-26.14128283 246.51622102 -27.59467113 246.11386968 -29.04837036 245.71264648 C-31.11409113 245.14178174 -33.17826852 244.56562128 -35.2421875 243.98828125 C-37.04985596 243.48615112 -37.04985596 243.48615112 -38.89404297 242.97387695 C-41.45511152 242.17085051 -43.66249504 241.29752867 -46 240 C-46 238.35 -46 236.7 -46 235 C-44.97261719 234.50371094 -43.94523437 234.00742187 -42.88671875 233.49609375 C-17.92315751 221.31646226 0.66414733 204.96473106 10.23071289 178.26074219 C13.49035228 168.4040077 14.29237551 158.30808205 15 148 C15.66604248 147.95174072 16.33208496 147.90348145 17.01831055 147.85375977 C23.72185956 147.29151875 28.6627503 146.31611909 34 142 C36.01997353 139.48346974 37.57200879 136.88785722 39 134 C39.33 133.34 39.66 132.68 40 132 C40.2588156 127.82682161 40.27111723 123.65175327 40.29516602 119.47119141 C40.30663404 118.08436844 40.32700338 116.69758779 40.35668945 115.31103516 C40.53121903 107.15787141 40.61306774 100.89425508 36 94 C31.31334039 89.43351115 26.63324374 87.84095738 20.1875 87.375 C19.21167969 87.30023438 18.23585938 87.22546875 17.23046875 87.1484375 C16.12638672 87.07496094 16.12638672 87.07496094 15 87 C14.99857498 86.35901367 14.99714996 85.71802734 14.99568176 85.05761719 C14.97579554 78.30719735 14.92112347 71.55765895 14.84741211 64.80761719 C14.82440062 62.29791619 14.80987654 59.78812093 14.80444336 57.27832031 C14.75395327 37.78137943 13.76413388 19.91827544 1.3203125 3.828125 C0 2 0 2 0 0 Z " fill="#05A2F8" transform="translate(343,26)"/>
<path d="M0 0 C15.11422804 12.63873625 15.11422804 12.63873625 19 19 C18 22 18 22 15.625 23.8125 C12.23565641 26.63695299 10.25832074 29.73969356 9.75 34.1875 C9 36 9 36 5.625 37.5 C4.42875 37.995 3.2325 38.49 2 39 C-0.87253431 42.0065411 -1.477832 44.46255138 -1.9140625 48.54296875 C-2.03523437 49.61740234 -2.15640625 50.69183594 -2.28125 51.79882812 C-2.45140625 53.4762207 -2.45140625 53.4762207 -2.625 55.1875 C-2.74617187 56.28642578 -2.86734375 57.38535156 -2.9921875 58.51757812 C-3.22914959 60.67728153 -3.46056081 62.83760222 -3.68603516 64.99853516 C-3.96426669 67.65839404 -4.25941336 70.31554149 -4.5625 72.97265625 C-4.90397018 76.06384147 -5.24118723 79.14142631 -5.375 82.25 C-5.44847656 83.43335938 -5.44847656 83.43335938 -5.5234375 84.640625 C-4.70579733 88.32610757 -2.9527355 89.7241762 0 92 C2.75394063 92.6763564 5.03485717 93.09188339 7.8125 93.3125 C8.85180664 93.42174805 8.85180664 93.42174805 9.91210938 93.53320312 C11.60615547 93.70844927 13.30292969 93.85697646 15 94 C15 94.66 15 95.32 15 96 C0.50194888 100.88848347 -13.96805437 105.1055827 -29 108 C-30.23435791 108.2477417 -30.23435791 108.2477417 -31.49365234 108.50048828 C-59.06320894 113.80169354 -91.50414977 113.59592671 -119 108 C-120.03141113 107.79600586 -121.06282227 107.59201172 -122.12548828 107.38183594 C-136.85854118 104.40094731 -150.96006829 100.35609133 -165 95 C-165 94.67 -165 94.34 -165 94 C-163.89140625 93.87882812 -162.7828125 93.75765625 -161.640625 93.6328125 C-160.17703766 93.46393704 -158.71349843 93.29464428 -157.25 93.125 C-156.52039063 93.04636719 -155.79078125 92.96773438 -155.0390625 92.88671875 C-149.70143552 92.334753 -149.70143552 92.334753 -145 90 C-142.28183133 86.45712381 -142.87841899 82.53988526 -143.1875 78.3125 C-143.23938477 77.54591064 -143.29126953 76.77932129 -143.34472656 75.98950195 C-143.54086487 73.32406626 -143.76715791 70.66247893 -144 68 C-144.08910645 66.94135742 -144.17821289 65.88271484 -144.27001953 64.79199219 C-144.56723678 61.42026568 -144.90266157 58.05440637 -145.25 54.6875 C-145.34692139 53.60831299 -145.44384277 52.52912598 -145.54370117 51.41723633 C-146.14132887 45.06222259 -146.14132887 45.06222259 -149.4453125 39.8203125 C-151.87354519 37.88882441 -151.87354519 37.88882441 -154.625 37.1875 C-157 36 -157 36 -157.8046875 34.28125 C-158.27421046 32.86740559 -158.734948 31.45061764 -159.1875 30.03125 C-160.42015206 26.94961984 -162.53657552 25.15549642 -165 23 C-166.0059135 22.00594868 -167.00724085 21.00718879 -168 20 C-123.71783299 -29.22776986 -54.1119914 -43.47137681 0 0 Z " fill="#C74C1B" transform="translate(330,401)"/>
<path d="M0 0 C2.17276237 -0.00964172 4.34455174 -0.04065789 6.51708984 -0.07226562 C16.10172171 -0.14631117 25.17695889 0.36824601 33.32568359 5.99023438 C34.00115234 6.43882812 34.67662109 6.88742187 35.37255859 7.34960938 C42.66460529 13.60732321 46.22935509 21.13502126 50.13818359 29.80273438 C50.7420691 31.12072085 51.34657236 32.43842444 51.95166016 33.75585938 C56.34893813 43.36977579 60.61134393 53.04492229 64.82568359 62.74023438 C65.1038089 63.37961945 65.3819342 64.01900452 65.66848755 64.67776489 C72.70467923 80.89467364 72.70467923 80.89467364 73.03271484 86.99804688 C73.09096436 87.86550537 73.14921387 88.73296387 73.20922852 89.62670898 C73.26828369 90.53042236 73.32733887 91.43413574 73.38818359 92.36523438 C73.97149736 99.99576942 75.00927945 105.9683303 78.64990234 112.76757812 C79.91720982 116.15241201 79.64670329 117.77741179 78.57568359 121.24023438 C76.94341409 124.12208819 75.03958951 126.76403558 73.07568359 129.42773438 C72.53177979 130.17949951 71.98787598 130.93126465 71.42749023 131.70581055 C57.77205047 150.42908298 41.8611475 167.94756301 23.57568359 182.24023438 C22.63853516 183.0059375 21.70138672 183.77164063 20.73583984 184.56054688 C6.91589252 195.62361925 -8.44779195 204.8985602 -24.50927734 212.32421875 C-26.49746447 213.2752231 -28.4294435 214.30452674 -30.36962891 215.34960938 C-40.27981183 220.47686208 -48.60887425 221.42806566 -59.42431641 218.24023438 C-63.95912973 215.17060774 -63.95912973 215.17060774 -65.42431641 212.24023438 C-66.06710434 204.0226528 -64.91214695 195.71229055 -64.04931641 187.55273438 C-63.92298828 186.27333984 -63.79666016 184.99394531 -63.66650391 183.67578125 C-62.07843146 168.39058394 -62.07843146 168.39058394 -59.05712891 164.46289062 C-55.79493928 161.95286389 -54.67065782 161.24023438 -50.42431641 161.24023438 C-50.38306641 160.22960937 -50.34181641 159.21898437 -50.29931641 158.17773438 C-49.63989233 153.40660722 -46.839914 150.4604122 -43.42431641 147.24023438 C-32.16106861 139.73140251 -11.91947938 145.33288859 0.56005859 147.58007812 C2.98649738 148.37478385 4.61899536 149.62288171 6.57568359 151.24023438 C6.09892121 147.05101574 6.09892121 147.05101574 4.57568359 143.24023438 C2.52237432 142.05689213 0.57369645 141.58287313 -1.72119141 140.99804688 C-12.38634748 138.00810428 -20.60312417 132.27906062 -26.23681641 122.80273438 C-30.30258225 115.4899064 -30.71416768 108.0374554 -30.65136719 99.87695312 C-30.65165924 98.87116714 -30.65195129 97.86538116 -30.6522522 96.82911682 C-30.6508669 93.52856603 -30.6353434 90.22824538 -30.61962891 86.92773438 C-30.61589593 84.62988407 -30.6130503 82.33203216 -30.61105347 80.03417969 C-30.60343941 74.00408487 -30.58381006 67.97408731 -30.56164551 61.94403076 C-30.54113904 55.7836641 -30.53204149 49.62328163 -30.52197266 43.46289062 C-30.50056207 31.38862928 -30.46645306 19.31443994 -30.42431641 7.24023438 C-28.34302536 6.25673413 -26.25920281 5.2785898 -24.17431641 4.30273438 C-23.01416016 3.75746094 -21.85400391 3.2121875 -20.65869141 2.65039062 C-13.8764121 -0.30661762 -7.28637687 0.01953016 0 0 Z " fill="#E9BFB4" transform="translate(389.42431640625,275.759765625)"/>
<path d="M0 0 C2.25404885 -0.00962754 4.50715444 -0.04062249 6.76098633 -0.07226562 C17.01531258 -0.15021392 25.01659602 1.53995926 34.50927734 5.34863281 C35.39619766 5.70423279 36.28311798 6.05983276 37.19691467 6.4262085 C38.200261 6.82915131 38.200261 6.82915131 39.22387695 7.24023438 C39.20896862 20.72347411 39.16722442 34.20634347 39.09178638 47.68938828 C39.05758349 53.95101403 39.03241676 60.21239752 39.02832031 66.47412109 C39.02402311 72.52385183 38.99544168 78.57303667 38.95044518 84.62259674 C38.93751571 86.92366601 38.93314623 89.22480075 38.93772316 91.52590179 C38.96220549 107.58078403 38.51180759 119.89016211 26.8215332 132.04882812 C21.31207622 136.69665574 14.78732556 139.2176566 8.16137695 141.86523438 C5.06146641 143.31625633 3.84648474 144.26545343 2.22387695 147.24023438 C1.51872849 149.38757364 1.51872849 149.38757364 1.22387695 151.24023438 C1.92770508 150.61632812 2.6315332 149.99242187 3.35668945 149.34960938 C8.57226341 145.88071737 15.03323145 146.02230854 21.09887695 145.49023438 C22.34024414 145.36519531 23.58161133 145.24015625 24.8605957 145.11132812 C43.10225772 143.34349932 43.10225772 143.34349932 50.22387695 147.24023438 C53.64638023 150.19603266 56.23813531 153.16423836 58.22387695 157.24023438 C58.22387695 158.56023437 58.22387695 159.88023437 58.22387695 161.24023438 C58.94575195 161.30210937 59.66762695 161.36398437 60.41137695 161.42773438 C64.08277965 162.48836182 65.70090633 164.43693368 68.22387695 167.24023438 C68.55387695 167.57023438 68.88387695 167.90023437 69.22387695 168.24023438 C69.59855251 170.90178188 69.91641056 173.54873643 70.1965332 176.22070312 C70.28390244 177.0263118 70.37127167 177.83192047 70.46128845 178.66194153 C70.64574968 180.37246314 70.82802183 182.083222 71.00830078 183.79418945 C71.28343784 186.39989924 71.56657455 189.004646 71.85083008 191.609375 C72.02904692 193.27143271 72.20679605 194.93354066 72.3840332 196.59570312 C72.46839127 197.37092819 72.55274933 198.14615326 72.6396637 198.94487 C73.94427668 211.45686329 73.94427668 211.45686329 70.22387695 216.24023438 C67.11377256 218.38513396 63.90932682 218.67013433 60.22387695 219.24023438 C59.34731445 219.38847656 58.47075195 219.53671875 57.56762695 219.68945312 C33.98055406 221.66584247 5.89178466 199.14392037 -11.77612305 185.24023438 C-13.23018555 184.10328125 -13.23018555 184.10328125 -14.71362305 182.94335938 C-34.36417494 167.20058769 -50.90979059 149.38903909 -65.54858398 128.93505859 C-66.63381182 127.43671897 -67.75332034 125.96333903 -68.87768555 124.49414062 C-72.88430768 119.06964992 -72.88430768 119.06964992 -72.40112305 115.36523438 C-71.86487305 114.33398438 -71.32862305 113.30273438 -70.77612305 112.24023438 C-67.38149586 104.78563307 -66.13732283 97.78212358 -65.72338867 89.66918945 C-64.75165187 75.92877255 -57.57807513 63.04342863 -51.83862305 50.74023438 C-50.45169019 47.7519511 -49.06845519 44.76197037 -47.6862793 41.77148438 C-47.18465523 40.6896991 -47.18465523 40.6896991 -46.67289734 39.58605957 C-44.01119372 33.82049963 -41.51681686 27.99572673 -39.09204102 22.12695312 C-34.56518806 12.19643192 -26.70911557 5.45095947 -16.77612305 1.24023438 C-11.41812976 -0.54576339 -5.61211407 0.01448443 0 0 Z " fill="#EABFB4" transform="translate(114.776123046875,275.759765625)"/>
<path d="M0 0 C1.23039253 -0.00744736 1.23039253 -0.00744736 2.48564148 -0.01504517 C5.19282888 -0.0296188 7.89995759 -0.0364625 10.60717773 -0.04199219 C12.49942525 -0.0477497 14.39167277 -0.05350736 16.28392029 -0.05926514 C20.25243398 -0.06976297 24.22092751 -0.0756129 28.18945312 -0.07910156 C33.24733183 -0.08456899 38.30493899 -0.10856462 43.36273289 -0.13707352 C47.27409106 -0.15580507 51.18538537 -0.16091117 55.09678459 -0.16243744 C56.95970066 -0.16544326 58.82261617 -0.17340082 60.68548775 -0.18662262 C73.94293017 -0.27396447 85.79596352 0.55544877 97.79077148 6.78613281 C98.80192017 7.30445679 98.80192017 7.30445679 99.83349609 7.83325195 C117.29889656 17.11168098 129.02765916 33.30761821 135.11384583 51.93629456 C138.25486847 63.15109506 137.24513116 75.13524688 137.04077148 86.66113281 C137.0156395 89.14157891 136.99283506 91.62204973 136.97241211 94.10253906 C136.91784891 100.12261836 136.83461662 106.14175702 136.72827148 112.16113281 C129.9325929 112.2642253 126.14531724 111.26823841 120.72827148 107.16113281 C115.57789847 101.62722138 112.59803477 96.49750312 112.10327148 88.91113281 C112.02850586 87.83347656 111.95374023 86.75582031 111.87670898 85.64550781 C111.80323242 84.41574219 111.80323242 84.41574219 111.72827148 83.16113281 C109.91721362 83.05081457 108.10407864 82.97451933 106.29077148 82.91113281 C105.28143555 82.86472656 104.27209961 82.81832031 103.23217773 82.77050781 C100.02496122 83.12805703 98.43029221 83.64892898 95.60717773 85.00878906 C89.97423293 87.68267403 84.20704218 88.73331396 78.10327148 89.84863281 C77.02948242 90.06068359 75.95569336 90.27273437 74.84936523 90.49121094 C61.31197505 93.04255023 47.66179239 93.39913253 33.91577148 93.41113281 C33.20848907 93.41180756 32.50120667 93.4124823 31.77249146 93.41317749 C11.5681218 93.38292339 -9.05747447 92.40417733 -27.76391602 84.04785156 C-30.89861811 82.93947559 -33.77049082 82.7369654 -37.08422852 82.53613281 C-38.24567383 82.46136719 -39.40711914 82.38660156 -40.60375977 82.30957031 C-41.9244043 82.23609375 -41.9244043 82.23609375 -43.27172852 82.16113281 C-43.21952148 83.21300781 -43.21952148 83.21300781 -43.16625977 84.28613281 C-42.92731558 92.6605575 -43.8563703 99.35697393 -49.69360352 105.77441406 C-55.29623484 110.69751832 -59.86153974 112.28335604 -67.27172852 112.16113281 C-67.37422476 105.17273677 -67.44364755 98.18453869 -67.49145508 91.19555664 C-67.51141196 88.82438921 -67.53858729 86.45326997 -67.57348633 84.08227539 C-67.94007263 58.51288097 -67.94007263 58.51288097 -63.27172852 46.16113281 C-62.98910156 45.41210693 -62.70647461 44.66308105 -62.4152832 43.89135742 C-54.87317532 25.89784164 -42.52964776 13.65820877 -25.27172852 5.16113281 C-16.80419602 1.77607086 -9.11599324 0.01328025 0 0 Z " fill="#954D3B" transform="translate(221.271728515625,-0.1611328125)"/>
<path d="M0 0 C20.36637034 -0.23361692 40.73246879 -0.40994993 61.0999012 -0.51812172 C70.55696529 -0.56968351 80.01319686 -0.63997542 89.46972656 -0.75439453 C97.71225501 -0.8540773 105.95418061 -0.91858386 114.19729507 -0.94088495 C118.56224248 -0.95392175 122.92546533 -0.98454443 127.28985977 -1.05730057 C131.39932343 -1.12525103 135.50635521 -1.14610482 139.61632729 -1.13107681 C141.12329526 -1.13382512 142.63034556 -1.15368434 144.13682747 -1.19205475 C148.57055985 -1.29943101 152.70916522 -1.28052921 157 0 C159.97177066 2.99959705 161.40199367 6.14104629 163 10 C165.79686477 13.53512349 168.88634225 16.74280484 172 20 C172.81210937 20.92425781 172.81210937 20.92425781 173.640625 21.8671875 C182.23121914 31.28213158 194.44555362 37.10567471 206 42 C206 44.31 206 46.62 206 49 C205.42307907 49.15620316 204.84615814 49.31240631 204.25175476 49.4733429 C198.19994907 51.11190958 192.14818164 52.75061752 186.09643555 54.3894043 C183.8435155 54.99946594 181.59058598 55.60949261 179.33764648 56.21948242 C176.08314511 57.1006547 172.8286788 57.98195637 169.57421875 58.86328125 C168.58105148 59.13215652 167.58788422 59.4010318 166.56462097 59.67805481 C165.60445572 59.93809799 164.64429047 60.19814117 163.6550293 60.46606445 C162.72411469 60.71780426 161.79320007 60.96954407 160.83407593 61.22891235 C158.86985292 61.76333279 156.90707082 62.3030667 154.94546509 62.84701538 C153.96548553 63.11817169 152.98550598 63.389328 151.97583008 63.66870117 C151.0963118 63.913759 150.21679352 64.15881683 149.31062317 64.41130066 C143.59251744 65.86815659 140.2645046 64.95977541 135.3203125 62.0703125 C127.44884987 58.43936846 119.28047114 58.6275225 110.79174805 58.62939453 C108.57067416 58.62501611 106.35158384 58.58859963 104.13085938 58.55078125 C96.38359502 58.48891351 89.75204337 58.77182119 83 63 C82.17886719 63.50402344 81.35773438 64.00804687 80.51171875 64.52734375 C79.90972656 64.99269531 79.30773437 65.45804687 78.6875 65.9375 C78.07261719 66.40027344 77.45773438 66.86304688 76.82421875 67.33984375 C61.64680713 81.15226332 54.73499465 108.58561865 46.8125 126.9375 C46.25103271 128.23216187 46.25103271 128.23216187 45.67822266 129.55297852 C45.33710449 130.34889404 44.99598633 131.14480957 44.64453125 131.96484375 C44.34909424 132.6518335 44.05365723 133.33882324 43.74926758 134.04663086 C42.46193507 137.40275578 41.87470175 140.5849545 41.60546875 144.16015625 C40.68995417 155.03855825 39.00842109 164.18438903 34 174 C33.34 174 32.68 174 32 174 C8.82728243 133.94361138 -4.2216488 90.4628514 -4.1875 44 C-4.18669434 42.83807129 -4.18588867 41.67614258 -4.18505859 40.47900391 C-4.10050964 28.3752415 -3.65740415 16.05948127 -0.96044922 4.21728516 C-0.78053436 3.42278961 -0.60061951 2.62829407 -0.41525269 1.8097229 C-0.2782193 1.21251434 -0.14118591 0.61530579 0 0 Z " fill="#0280E3" transform="translate(9,218)"/>
<path d="M0 0 C51.48 0 102.96 0 156 0 C168.53954917 56.42797125 155.82456083 121.83436921 126 171 C124.71522614 172.70438014 123.40457036 174.39291019 122 176 C117.40116073 166.58539508 115.22517448 158.32758419 114.84619141 147.85083008 C114.44950639 140.25556545 112.00443459 133.92382348 109 127 C108.70018219 126.30459106 108.40036438 125.60918213 108.09146118 124.8927002 C106.03079392 120.13275362 103.92520265 115.39386801 101.79907227 110.6628418 C100.69487779 108.20392947 99.59807099 105.74181833 98.50195312 103.27929688 C95.03753534 95.52459283 91.50163369 87.80574453 87.76953125 80.17578125 C87.4634343 79.53690475 87.15733734 78.89802826 86.84196472 78.23979187 C83.80086688 72.12344835 80.14452449 67.25299986 74.1875 63.75 C73.39730469 63.27046875 72.60710937 62.7909375 71.79296875 62.296875 C63.36038284 58.38132462 54.6216417 58.52832849 45.5 58.5 C44.42768631 58.49249222 44.42768631 58.49249222 43.33370972 58.48483276 C33.48298154 58.45509983 25.12470004 59.16647849 16.25390625 63.78515625 C9.70245066 66.23113787 2.94201893 63.92747128 -3.5625 62 C-5.10794001 61.5555272 -6.65352617 61.11156241 -8.19921875 60.66796875 C-9.08399902 60.41192871 -9.9687793 60.15588867 -10.88037109 59.89208984 C-14.62943602 58.82000632 -18.38653239 57.7785226 -22.14453125 56.73828125 C-24.32586492 56.1324755 -26.50706158 55.52617921 -28.6882019 54.91967773 C-30.14128283 54.51622102 -31.59467113 54.11386968 -33.04837036 53.71264648 C-35.11409113 53.14178174 -37.17826852 52.56562128 -39.2421875 51.98828125 C-40.4472998 51.65352783 -41.65241211 51.31877441 -42.89404297 50.97387695 C-45.45511152 50.17085051 -47.66249504 49.29752867 -50 48 C-50 46.35 -50 44.7 -50 43 C-48.97261719 42.50371094 -47.94523437 42.00742187 -46.88671875 41.49609375 C-26.30511713 31.45440455 -11.5743639 20.25513683 0 0 Z " fill="#0280E3" transform="translate(347,218)"/>
<path d="M0 0 C0.33 0 0.66 0 1 0 C1.00546844 1.97625366 1.00546844 1.97625366 1.01104736 3.99243164 C1.04814247 16.46688404 1.10607267 28.94109289 1.18390274 41.4153595 C1.22325076 47.82704628 1.25550124 54.23859831 1.27099609 60.65039062 C1.28624633 66.84920846 1.32083938 73.04765553 1.36830902 79.24630737 C1.38303692 81.59989176 1.39103602 83.95352911 1.39188385 86.30715942 C1.40371863 102.70188373 2.24332789 117.79085002 9.6875 132.75 C10.0292627 133.45261963 10.37102539 134.15523926 10.72314453 134.87915039 C20.91610588 155.12420978 38.82152123 170.41058944 60.08203125 178.1171875 C78.53401058 184.11462799 95.27973174 184.11973977 114 180 C115.66598607 179.66328155 117.33235944 179.32842634 119 179 C119.95797397 183.7748649 120.11477088 188.37364464 120.01953125 193.22265625 C119.9983448 194.39555458 119.9983448 194.39555458 119.97673035 195.59214783 C119.94373915 197.24371093 119.90740446 198.89521024 119.86791992 200.54663086 C119.81320542 203.03047634 119.78424393 205.5137809 119.75585938 207.99804688 C119.47560239 222.97749682 116.88700519 235.48419727 106.34375 246.7734375 C98.04094918 254.488776 87.04603907 258.58997942 75.7734375 258.3125 C63.02136619 256.87564689 53.01014917 251.18473155 44.79296875 241.5078125 C40.09957507 234.9431965 36.8641763 227.43982762 36.88647461 219.32324219 C36.88658791 217.94226349 36.88658791 217.94226349 36.88670349 216.53338623 C36.89186478 215.54783752 36.89702606 214.56228882 36.90234375 213.546875 C36.9037587 212.53151672 36.90517365 211.51615845 36.90663147 210.47003174 C36.91222484 207.22999108 36.92477615 203.99001975 36.9375 200.75 C36.94251586 198.55208433 36.94707861 196.35416758 36.95117188 194.15625 C36.9621921 188.77080971 36.97892367 183.38540981 37 178 C36.38434677 177.79880051 35.76869354 177.59760101 35.13438416 177.39030457 C34.32554276 177.12381607 33.51670135 176.85732758 32.68334961 176.58276367 C31.88207138 176.31968918 31.08079315 176.05661469 30.25523376 175.78556824 C12.82208164 169.71305779 -3.23800333 153.99233325 -12 138 C-12.53238281 137.04351562 -13.06476563 136.08703125 -13.61328125 135.1015625 C-17.38107093 127.97735472 -19.9116452 120.77108951 -22 113 C-22.226875 112.20851563 -22.45375 111.41703125 -22.6875 110.6015625 C-24.29337813 104.42339246 -24.19342088 98.35065237 -24 92 C-24.6290625 92.04640625 -25.258125 92.0928125 -25.90625 92.140625 C-33.17585507 92.44717461 -38.31040927 91.38622438 -43.7578125 86.38671875 C-50.75642697 78.76262424 -50.36516216 70.5218639 -50.375 60.625 C-50.39949219 59.3359375 -50.42398438 58.046875 -50.44921875 56.71875 C-50.47522974 48.27384776 -49.97354749 42.41784711 -44.1484375 35.94140625 C-43.27058594 35.25884766 -43.27058594 35.25884766 -42.375 34.5625 C-41.78460938 34.08941406 -41.19421875 33.61632812 -40.5859375 33.12890625 C-37.88650928 31.20739208 -36.04415734 30.84821971 -32.78125 30.67578125 C-21.99323908 29.96651707 -13.32911457 29.3898255 -5.37109375 21.35546875 C-0.7458333 15.30705124 -0.6396687 7.33232178 0 0 Z " fill="#E9BFB4" transform="translate(178,82)"/>
<path d="M0 0 C0 0.33 0 0.66 0 1 C-4.29 1 -8.58 1 -13 1 C-5.66961072 19.81466582 4.18280653 36.94440697 16.76367188 52.72607422 C18.68849787 55.16108587 20.00854197 57.0256259 21 60 C20.12859375 60.54527344 19.2571875 61.09054687 18.359375 61.65234375 C10.27279089 66.75641477 2.57762953 72.15842181 -5 78 C-6.3317282 79.00213661 -7.66441273 80.00301232 -9 81 C-12.54041208 79.33643288 -15.76340919 77.28400607 -19.0625 75.1875 C-28.23663878 69.51616783 -37.23364832 65.77611535 -47.5625 62.75 C-48.43712891 62.49138184 -49.31175781 62.23276367 -50.21289062 61.96630859 C-58.38266308 59.66951772 -65.97370275 58.84799689 -74.453125 59.21875 C-75.566875 59.26257813 -76.680625 59.30640625 -77.828125 59.3515625 C-80.12652627 59.45126484 -82.42377423 59.58195271 -84.71875 59.7421875 C-88.03168678 59.84234605 -90.78803642 59.82977625 -94 59 C-96.15533864 56.90710374 -97.38666117 54.90475236 -98.78027344 52.25195312 C-100.32717962 49.39593578 -102.33324409 47.80398194 -105 46 C-76.02188305 13.78549542 -43.32243044 -1.11996208 0 0 Z " fill="#F06B38" transform="translate(267,375)"/>
<path d="M0 0 C-0.66 0 -1.32 0 -2 0 C-1.93866617 12.73543091 -1.86147145 25.47065897 -1.76428509 38.20586967 C-1.71964554 44.11997986 -1.68037517 50.03402217 -1.65356445 55.94824219 C-1.62746765 61.66070605 -1.58701991 67.37290784 -1.53681374 73.08520889 C-1.52018815 75.25954034 -1.50864715 77.43391707 -1.50238609 79.60830307 C-1.49269816 82.66476366 -1.4645826 85.72056022 -1.43237305 88.77685547 C-1.43452568 90.111511 -1.43452568 90.111511 -1.4367218 91.47312927 C-1.27071366 102.68427881 2.29010254 111.66401729 9.78125 119.9765625 C21.0792649 130.85784734 35.54022631 129.65179578 50.1875 129.75 C52.30536258 129.77819711 54.42320279 129.80812969 56.54101562 129.83984375 C61.69397003 129.91326431 66.84665988 129.96311093 72 130 C72 130.99 72 131.98 72 133 C70.79053711 133.37286133 69.58107422 133.74572266 68.33496094 134.12988281 C63.79449876 135.53004392 59.25459349 136.93200349 54.71484375 138.33447266 C52.75991419 138.93814409 50.80483927 139.541345 48.84960938 140.14404297 C46.01913513 141.01662782 43.18909373 141.89059328 40.359375 142.765625 C39.447323 143.04764771 38.535271 143.32967041 37.59558105 143.62023926 C31.71663538 145.44596047 25.87167592 147.34399138 20.05566406 149.36230469 C18 150 18 150 16 150 C15.855625 148.741875 15.71125 147.48375 15.5625 146.1875 C15.07999067 143.94411435 15.07999067 143.94411435 14 142 C11.94669073 140.81665775 9.99801286 140.34263876 7.703125 139.7578125 C-2.96203108 136.7678699 -11.17880776 131.03882625 -16.8125 121.5625 C-20.87826584 114.24967202 -21.28985128 106.79722102 -21.22705078 98.63671875 C-21.22734283 97.63093277 -21.22763489 96.62514679 -21.22793579 95.58888245 C-21.22655049 92.28833166 -21.21102699 88.98801101 -21.1953125 85.6875 C-21.19157953 83.38964969 -21.1887339 81.09179779 -21.18673706 78.79394531 C-21.17912301 72.76385049 -21.15949366 66.73385294 -21.1373291 60.70379639 C-21.11682263 54.54342972 -21.10772509 48.38304725 -21.09765625 42.22265625 C-21.07624566 30.14839491 -21.04213665 18.07420556 -21 6 C-18.91870896 5.01649975 -16.83488641 4.03835542 -14.75 3.0625 C-13.58984375 2.51722656 -12.4296875 1.97195313 -11.234375 1.41015625 C-6.96639712 -0.45064087 -4.48027756 -1.44008922 0 0 Z " fill="#E0A595" transform="translate(380,277)"/>
<path d="M0 0 C0.0093457 1.1238208 0.01869141 2.2476416 0.02832031 3.40551758 C0.06855874 7.62351365 0.1344069 11.84080599 0.20751953 16.05834961 C0.23553465 17.87466305 0.25684474 19.691094 0.27099609 21.50756836 C0.39740507 36.82412228 2.11116909 49.11466339 12.7421875 60.9375 C20.87634789 68.76789507 31.95256101 72.43969403 43.125 72.2734375 C55.03594069 71.14060347 65.18222693 65.86072065 72.875 56.75 C78.99003441 48.34182769 81.10045549 38.7066268 81.31640625 28.515625 C81.3475779 27.29223419 81.3475779 27.29223419 81.37937927 26.04412842 C81.44461297 23.44616895 81.50363768 20.84811087 81.5625 18.25 C81.60571014 16.485667 81.64932522 14.72134387 81.69335938 12.95703125 C81.80026745 8.63812116 81.90160827 4.31911216 82 0 C86.86896303 0.59619955 91.32790951 1.56976822 96 3 C96.10057784 7.83392596 96.17225269 12.66721348 96.21972656 17.50195312 C96.23956301 19.13878007 96.26664112 20.77553895 96.30175781 22.41210938 C96.69793702 41.38210194 93.75563944 58.06135839 80.1875 72.375 C75.49947509 76.78767405 70.75514991 80.13517649 65 83 C64.11699219 83.48597656 63.23398437 83.97195313 62.32421875 84.47265625 C54.87903379 88.01281705 48.03620831 88.48870517 39.875 88.5625 C38.87388184 88.57716309 37.87276367 88.59182617 36.84130859 88.60693359 C21.29215073 88.39505047 8.70454071 80.79344886 -2 70 C-9.49699005 62.07334056 -16.14984325 50.15171969 -16.11352539 38.96582031 C-16.11344986 38.18531311 -16.11337433 37.40480591 -16.11329651 36.60064697 C-16.10813522 35.76821472 -16.10297394 34.93578247 -16.09765625 34.078125 C-16.0962413 33.21813904 -16.09482635 32.35815308 -16.09336853 31.47210693 C-16.08778097 28.73136891 -16.07523075 25.99071324 -16.0625 23.25 C-16.05748339 21.3893241 -16.05292077 19.52864691 -16.04882812 17.66796875 C-16.03781561 13.11194754 -16.02055951 8.55598772 -16 4 C-14.75108386 3.51801537 -13.50081192 3.03954323 -12.25 2.5625 C-11.55390625 2.29566406 -10.8578125 2.02882813 -10.140625 1.75390625 C-6.52386334 0.48011975 -3.89719464 0 0 0 Z " fill="#FEDE8E" transform="translate(215,267)"/>
<path d="M0 0 C0.93779297 0.00322266 1.87558594 0.00644531 2.84179688 0.00976562 C4.30649414 0.02233398 4.30649414 0.02233398 5.80078125 0.03515625 C6.78884766 0.03966797 7.77691406 0.04417969 8.79492188 0.04882812 C11.23443599 0.06061322 13.67382814 0.07706614 16.11328125 0.09765625 C12.86377865 2.26399132 9.5470741 3.73264949 5.9765625 5.29296875 C-1.3879935 9.93474893 -5.94435113 15.97665156 -9.38671875 23.84765625 C-9.78197754 24.71455078 -10.17723633 25.58144531 -10.58447266 26.47460938 C-11.49623945 28.48505005 -12.39871568 30.49971929 -13.29394531 32.51757812 C-14.80305187 35.90959813 -16.33461346 39.29039883 -17.87286377 42.66925049 C-19.3169973 45.84565135 -20.752062 49.0260931 -22.18481445 52.2076416 C-22.89416023 53.78191965 -23.60521839 55.35542742 -24.31811523 56.92810059 C-32.37727067 74.40942925 -32.37727067 74.40942925 -35.57421875 93.22265625 C-35.81670708 99.88762124 -35.81670708 99.88762124 -36.88671875 103.09765625 C-37.05581577 104.86347266 -37.15261797 106.63687405 -37.19921875 108.41015625 C-37.23660156 109.33441406 -37.27398437 110.25867188 -37.3125 111.2109375 C-36.29293987 118.12336808 -30.82479746 122.22917492 -25.76171875 126.47265625 C-25.10099365 127.03847412 -24.44026855 127.60429199 -23.75952148 128.18725586 C-19.15198008 132.11074726 -14.43540472 135.84503836 -9.546875 139.4140625 C-7.88671875 141.09765625 -7.88671875 141.09765625 -7.88671875 145.09765625 C-16.97146911 142.9546681 -25.86013302 140.3363226 -34.76171875 137.53515625 C-36.05329265 137.13186425 -37.344959 136.72886819 -38.63671875 136.32617188 C-42.05579775 135.25726357 -45.4738448 134.18621346 -48.88671875 133.09765625 C-49.95680176 132.78352783 -51.02688477 132.46939941 -52.12939453 132.14575195 C-55.94830044 130.6941349 -57.68347169 128.11958793 -59.88671875 124.84765625 C-60.30566406 124.28691406 -60.72460938 123.72617187 -61.15625 123.1484375 C-62.32421875 121.45703125 -62.32421875 121.45703125 -63.88671875 118.09765625 C-63.26171875 114.96875 -63.26171875 114.96875 -61.88671875 112.09765625 C-58.63724207 104.54516163 -57.25105866 97.70109057 -56.83398438 89.52661133 C-55.86224757 75.78619443 -48.68867083 62.9008505 -42.94921875 50.59765625 C-41.56228589 47.60937298 -40.17905089 44.61939225 -38.796875 41.62890625 C-38.29525093 40.54712097 -38.29525093 40.54712097 -37.78349304 39.44348145 C-35.12178942 33.67792151 -32.62741256 27.8531486 -30.20263672 21.984375 C-25.67578377 12.05385379 -17.81971128 5.30838134 -7.88671875 1.09765625 C-4.94539984 0.11721661 -3.0617021 -0.01855577 0 0 Z " fill="#DFA595" transform="translate(105.88671875,275.90234375)"/>
<path d="M0 0 C0.01458252 1.28052246 0.02916504 2.56104492 0.04418945 3.88037109 C0.10253875 8.67035651 0.17976733 13.4598897 0.26245117 18.24951172 C0.29552916 20.31519178 0.32361336 22.38095851 0.34643555 24.44677734 C0.38029846 27.43103677 0.43262793 30.4145141 0.48828125 33.3984375 C0.49467117 34.30927094 0.5010611 35.22010437 0.50764465 36.15853882 C0.77289354 47.95297128 4.50478281 58.00823136 13.125 66.25 C17.80386454 70.01184877 23.4577048 71.85533931 29 74 C34.70491803 76.55737705 34.70491803 76.55737705 37 80 C37.125 82.6875 37.125 82.6875 37 85 C36.14148438 84.5359375 36.14148438 84.5359375 35.265625 84.0625 C29.21180355 81.22346649 21.98944143 80.7952529 15.4375 79.875 C14.75929199 79.77791748 14.08108398 79.68083496 13.38232422 79.58081055 C9.71280411 79.11816907 6.36385462 78.98214666 2.68359375 79.40234375 C-7.8121094 80.5000268 -7.8121094 80.5000268 -11.89941406 77.69775391 C-15.78423083 74.12957773 -19.00442717 70.01176355 -22.31933594 65.92382812 C-24.87408013 62.99945505 -27.76489657 60.68164488 -30.875 58.375 C-31.86242187 57.64023437 -32.84984375 56.90546875 -33.8671875 56.1484375 C-37.51048496 53.6499168 -41.2333798 51.30695001 -45 49 C-44.94769624 45.16559363 -44.85252027 41.3333665 -44.75 37.5 C-44.72873047 35.88351562 -44.72873047 35.88351562 -44.70703125 34.234375 C-44.47859258 26.74158658 -43.75424423 20.97267518 -38.47680664 15.38818359 C-32.8730358 10.6557053 -25.97788265 8.32560415 -19.17114258 5.84765625 C-17.16909745 5.11829581 -15.17518678 4.36943225 -13.18164062 3.6171875 C-3.47448312 0 -3.47448312 0 0 0 Z " fill="#FEDE8E" transform="translate(359,342)"/>
<path d="M0 0 C6.07088373 1.03158843 11.69969106 3.33979793 17.43774414 5.50048828 C19.42384802 6.24488322 21.41571182 6.97212557 23.40820312 7.69921875 C24.68789364 8.17863807 25.96720369 8.65907446 27.24609375 9.140625 C28.39779053 9.56891602 29.5494873 9.99720703 30.73608398 10.43847656 C36.50128443 13.19666506 40.57749171 16.76901857 43.22314453 22.64013672 C45.88069856 30.71302084 46.4570402 40.64025213 45 49 C42.06371865 53.09368934 38.57202358 54.16332714 34 56 C31.09567469 58.03032011 31.09567469 58.03032011 28.375 60.375 C27.47394531 61.13039063 26.57289063 61.88578125 25.64453125 62.6640625 C18.33284726 69.08940893 18.33284726 69.08940893 12.24169922 76.61938477 C10 79 10 79 7.27758789 79.44213867 C6.24883545 79.3722876 5.22008301 79.30243652 4.16015625 79.23046875 C-3.18921972 78.94578449 -10.25731972 79.52938467 -17.5625 80.3125 C-19.42745117 80.48942383 -19.42745117 80.48942383 -21.33007812 80.66992188 C-23.11768555 80.85844727 -23.11768555 80.85844727 -24.94140625 81.05078125 C-26.01076416 81.16075439 -27.08012207 81.27072754 -28.18188477 81.3840332 C-31.20397857 82.04458442 -32.64774987 83.05946763 -35 85 C-35.66 85 -36.32 85 -37 85 C-36.81656477 81.05614258 -36.30666628 79.33894694 -33.625 76.375 C-30.81411614 74.24656631 -27.95289386 73.18566418 -24.625 72.0625 C-15.04647242 68.80034203 -8.45389623 62.81602046 -3.87786865 53.78555298 C-1.13719446 47.38874501 -0.39953145 41.8807357 -0.390625 34.9609375 C-0.37408875 33.95406891 -0.35755249 32.94720032 -0.34051514 31.90982056 C-0.29239267 28.73148279 -0.27074378 25.55362217 -0.25 22.375 C-0.22181044 20.20440354 -0.19187888 18.03382895 -0.16015625 15.86328125 C-0.08664401 10.57560646 -0.03479306 5.28806388 0 0 Z " fill="#FEDE8E" transform="translate(153,342)"/>
<path d="M0 0 C21.23226783 -0.65666808 43.56230585 2.78596879 61 16 C62.3203125 18.2109375 62.3203125 18.2109375 63 20 C62.23816406 20.67804688 61.47632813 21.35609375 60.69140625 22.0546875 C51.31075424 30.47635376 43.11188326 39.56278094 35.125 49.3125 C34.56498291 49.99465576 34.00496582 50.67681152 33.42797852 51.37963867 C30.66297093 54.79128433 28.13365714 58.1430044 26 62 C19.1803497 61.41605441 12.89495321 60.09983458 6.3125 58.25 C5.35585449 57.98558105 4.39920898 57.72116211 3.41357422 57.44873047 C-4.19559201 55.30925264 -11.62547117 52.84410156 -19 50 C-19 49.67 -19 49.34 -19 49 C-17.89140625 48.87882812 -16.7828125 48.75765625 -15.640625 48.6328125 C-14.17703766 48.46393704 -12.71349843 48.29464428 -11.25 48.125 C-10.52039063 48.04636719 -9.79078125 47.96773438 -9.0390625 47.88671875 C-3.70143552 47.334753 -3.70143552 47.334753 1 45 C3.85965856 41.36364406 3.07377422 37.10736549 2.75 32.75 C2.6991626 31.95875732 2.6483252 31.16751465 2.59594727 30.35229492 C2.13480065 23.71297462 1.33947832 17.13808484 0.40234375 10.55078125 C0.00010198 7.00089998 -0.0687268 3.56921185 0 0 Z " fill="#FC7D43" transform="translate(184,446)"/>
<path d="M0 0 C0.65880661 0.00141495 1.31761322 0.0028299 1.99638367 0.00428772 C4.08487637 0.00985125 6.17325886 0.02239678 8.26171875 0.03515625 C9.68424324 0.04017597 11.10676941 0.04473805 12.52929688 0.04882812 C16.00263952 0.05980868 19.47591836 0.0770479 22.94921875 0.09765625 C22.94921875 0.42765625 22.94921875 0.75765625 22.94921875 1.09765625 C21.97984375 1.22140625 21.01046875 1.34515625 20.01171875 1.47265625 C5.57812042 3.58781532 -7.1611505 9.23782961 -18.05078125 19.09765625 C-19.05818359 19.96777344 -19.05818359 19.96777344 -20.0859375 20.85546875 C-32.96707516 32.71902135 -40.24452168 50.24712956 -41.25292969 67.5703125 C-41.39869074 72.58770205 -41.4756571 77.60389662 -41.52929688 82.62304688 C-41.71754815 91.40657587 -42.26563712 98.88695563 -48.47265625 105.7109375 C-54.07528757 110.63404176 -58.64059248 112.21987948 -66.05078125 112.09765625 C-66.15327749 105.10926021 -66.22270029 98.12106213 -66.27050781 91.13208008 C-66.2904647 88.76091265 -66.31764002 86.38979341 -66.35253906 84.01879883 C-66.71912536 58.44940441 -66.71912536 58.44940441 -62.05078125 46.09765625 C-61.7681543 45.34863037 -61.48552734 44.59960449 -61.19433594 43.82788086 C-53.65222806 25.83436508 -41.30870049 13.59473221 -24.05078125 5.09765625 C-16.0255297 1.88940477 -8.65929669 -0.03684807 0 0 Z " fill="#7C402D" transform="translate(220.05078125,-0.09765625)"/>
<path d="M0 0 C4.00211315 3.39309593 7.93471453 6.84027296 11.8125 10.375 C19.92902087 18.87532391 19.92902087 18.87532391 30 23 C29.9278125 23.67804688 29.855625 24.35609375 29.78125 25.0546875 C29.4841049 28.03439253 29.23370065 31.01466262 29 34 C28.92007813 34.9178125 28.84015625 35.835625 28.7578125 36.78125 C28.71398437 37.6371875 28.67015625 38.493125 28.625 39.375 C28.57601562 40.14585937 28.52703125 40.91671875 28.4765625 41.7109375 C29.30728482 45.3437978 31.09125318 46.75041583 34 49 C36.75394063 49.6763564 39.03485717 50.09188339 41.8125 50.3125 C42.85180664 50.42174805 42.85180664 50.42174805 43.91210938 50.53320312 C45.60615547 50.70844927 47.30292969 50.85697646 49 51 C49 51.66 49 52.32 49 53 C11.73458541 65.56523114 11.73458541 65.56523114 -7 66 C-7.3403125 64.87464844 -7.680625 63.74929688 -8.03125 62.58984375 C-12.7673962 47.40122592 -19.1862428 34.5543011 -29 22 C-25.63476177 17.18239579 -21.52625377 14.27277215 -16.75 11 C-15.66138672 10.23816406 -15.66138672 10.23816406 -14.55078125 9.4609375 C-9.79295552 6.15335812 -4.94196876 3.02473917 0 0 Z " fill="#FC7D43" transform="translate(296,444)"/>
<path d="M0 0 C3.38808682 3.10701235 5.74588919 6.5456318 8.125 10.4375 C11.70467556 16.17242589 15.58283504 21.55162109 19.81298828 26.82397461 C21.72926835 29.23295754 23.01583221 31.04749662 24 34 C23.12859375 34.54527344 22.2571875 35.09054687 21.359375 35.65234375 C13.27279089 40.75641477 5.57762953 46.15842181 -2 52 C-3.3317282 53.00213661 -4.66441273 54.00301232 -6 55 C-9.54041208 53.33643288 -12.76340919 51.28400607 -16.0625 49.1875 C-27.75192329 41.94312086 -39.91431711 37.94604531 -53 34 C-48.91615293 28.77629556 -44.58421932 24.86439835 -39.125 21.125 C-38.38467529 20.61179199 -37.64435059 20.09858398 -36.8815918 19.56982422 C-25.2247935 11.61216279 -13.10373558 5.22101965 0 0 Z " fill="#FC7C42" transform="translate(264,401)"/>
<path d="M0 0 C0.93271729 0.19698486 0.93271729 0.19698486 1.88427734 0.39794922 C7.44986226 1.54650369 12.98107234 2.47171805 18.625 3.125 C19.34300781 3.21136719 20.06101563 3.29773438 20.80078125 3.38671875 C22.53343872 3.59463765 24.26666015 3.7978487 26 4 C26.01401855 5.6245813 26.01401855 5.6245813 26.02832031 7.28198242 C26.06867734 11.36212912 26.13455387 15.44155737 26.20751953 19.52124023 C26.2354675 21.27537698 26.25680992 23.02963353 26.27099609 24.78393555 C26.39799188 39.61281072 27.38139348 54.14845816 38.3125 65.375 C38.869375 65.91125 39.42625 66.4475 40 67 C40 67.66 40 68.32 40 69 C40.56203125 69.27585937 41.1240625 69.55171875 41.703125 69.8359375 C44.08618794 71.04368028 46.4179008 72.32176809 48.75 73.625 C49.94882812 74.29402344 49.94882812 74.29402344 51.171875 74.9765625 C51.77515625 75.31429687 52.3784375 75.65203125 53 76 C49.74203143 79.25796857 45.93529168 79.10369568 41.5 79.3125 C30.14828697 79.16024155 20.06713462 74.6377004 11.84765625 67 C4.92556366 59.78143044 -0.14211596 50.59328045 -0.11352539 40.41503906 C-0.11344986 39.51440735 -0.11337433 38.61377563 -0.11329651 37.68585205 C-0.10813522 36.72217712 -0.10297394 35.7585022 -0.09765625 34.765625 C-0.0962413 33.77246277 -0.09482635 32.77930054 -0.09336853 31.75604248 C-0.08777588 28.58733088 -0.0752247 25.41869021 -0.0625 22.25 C-0.05748405 20.10026144 -0.05292131 17.95052177 -0.04882812 15.80078125 C-0.03780886 10.53383001 -0.021078 5.26692007 0 0 Z " fill="#E1A595" transform="translate(215,261)"/>
<path d="M0 0 C26.87495601 0.51412959 51.77913277 13.82065759 71 32 C71.33 32.66 71.66 33.32 72 34 C71.01942627 34.39940796 71.01942627 34.39940796 70.01904297 34.80688477 C53.00215751 41.74231807 53.00215751 41.74231807 36.51171875 49.8203125 C34 51 34 51 31 51 C29.01703943 48.75386874 27.25659994 46.54046523 25.5 44.125 C24.97245117 43.40828125 24.44490234 42.6915625 23.90136719 41.953125 C0 8.96210354 0 8.96210354 0 0 Z " fill="#FC7C42" transform="translate(267,376)"/>
<path d="M0 0 C1.02222656 -0.01417969 2.04445313 -0.02835937 3.09765625 -0.04296875 C5.91793159 0.18591192 7.5430336 0.73474221 9.9375 2.1875 C8.2978125 3.2703125 8.2978125 3.2703125 6.625 4.375 C3.47223463 6.63607415 1.55783359 8.5867587 -0.0625 12.1875 C-0.145 13.05375 -0.2275 13.92 -0.3125 14.8125 C-0.56 15.59625 -0.8075 16.38 -1.0625 17.1875 C-3.36618736 18.25402192 -5.70268187 19.25171005 -8.0625 20.1875 C-13.38048994 25.68275627 -12.72987499 34.03019173 -13.41967773 41.23950195 C-13.62269168 43.3509918 -13.8334857 45.46160465 -14.04492188 47.57226562 C-16.1155336 59.62734598 -16.1155336 59.62734598 -13.25 70.625 C-11.5430646 71.84423957 -9.80785785 73.0239281 -8.0625 74.1875 C-13.3224468 75.99518198 -17.07320631 76.32860525 -22.6875 75.5625 C-23.95851563 75.40523438 -25.22953125 75.24796875 -26.5390625 75.0859375 C-30.35020335 74.11413884 -32.26201327 72.90470088 -35.0625 70.1875 C-38.65189266 63.00871468 -35.49381689 51.12512175 -34.6875 43.5 C-34.56117188 42.22060547 -34.43484375 40.94121094 -34.3046875 39.62304688 C-32.71661505 24.33784957 -32.71661505 24.33784957 -29.6953125 20.41015625 C-26.43312287 17.90012952 -25.30884141 17.1875 -21.0625 17.1875 C-21.02125 16.176875 -20.98 15.16625 -20.9375 14.125 C-20.27807592 9.35387284 -17.47809759 6.40767783 -14.0625 3.1875 C-9.51557754 0.15621836 -5.38205495 0.03402057 0 0 Z " fill="#E1A594" transform="translate(360.0625,419.8125)"/>
<path d="M0 0 C0.95769287 -0.00478363 1.91538574 -0.00956726 2.90209961 -0.01449585 C4.92270555 -0.01789151 6.94336668 -0.00871245 8.96386719 0.01220703 C12.05268111 0.0389774 15.1378613 0.01244798 18.2265625 -0.01953125 C20.19271634 -0.01622709 22.15886791 -0.00982074 24.125 0 C25.04595459 -0.01012115 25.96690918 -0.02024231 26.91577148 -0.03067017 C31.43177575 0.05167146 33.4520738 0.2028666 37.15234375 2.99853516 C39.69945879 6.55290658 39.64665375 8.35592861 39.0625 12.6640625 C37.62388312 19.67731981 33.80575229 23.58536126 28.0625 27.6640625 C23.3085029 30.46703043 18.63045944 29.99418025 13.25 29.9765625 C12.27740234 29.99267578 11.30480469 30.00878906 10.30273438 30.02539062 C2.7672838 30.03049249 -1.84831975 28.78408816 -8.125 24.4765625 C-12.45053092 20.15103158 -15.0678555 15.66674046 -15.5 9.4765625 C-14.14892904 0.31930375 -7.81357603 -0.08587005 0 0 Z " fill="#E1A595" transform="translate(243.9375,214.3359375)"/>
<path d="M0 0 C7.72594586 2.57531529 11.85957609 14.11250465 15.35668945 21.08056641 C17.58863628 25.73068657 19.04562953 30.11902981 19.6484375 35.27734375 C19.76445312 35.84582031 19.88046875 36.41429687 20 37 C20.99 37.495 20.99 37.495 22 38 C15.91683239 38.02487768 9.83369497 38.04294361 3.75048828 38.05493164 C1.68472782 38.05993387 -0.38102915 38.06673776 -2.44677734 38.07543945 C-5.43067288 38.08768625 -8.41452125 38.09326956 -11.3984375 38.09765625 C-12.76468765 38.10539818 -12.76468765 38.10539818 -14.15853882 38.11329651 C-20.1626863 38.11381176 -26.03807525 37.70735635 -32 37 C-30.47939579 32.15591953 -27.73790018 28.98159828 -24.4375 25.25 C-23.87973877 24.6118335 -23.32197754 23.97366699 -22.74731445 23.31616211 C-15.53771685 15.18635733 -7.77066503 7.58855101 0 0 Z " fill="#FC7D44" transform="translate(256,474)"/>
<path d="M0 0 C4.05314149 0.84440448 5.40461623 2.44114534 8 5.625 C8.56762695 8.76293945 8.56762695 8.76293945 8.48828125 12.23828125 C8.47216797 13.48544922 8.45605469 14.73261719 8.43945312 16.01757812 C8.39755859 17.31115234 8.35566406 18.60472656 8.3125 19.9375 C8.28994141 21.25041016 8.26738281 22.56332031 8.24414062 23.91601562 C8.18527725 27.1535013 8.10308804 30.38867 8 33.625 C8.78761719 33.76679688 9.57523437 33.90859375 10.38671875 34.0546875 C13 34.625 13 34.625 14.8125 35.75 C16.75184222 38.81211929 16.49418123 41.10395874 16 44.625 C13.75 47.0625 13.75 47.0625 11 48.625 C9.68 48.625 8.36 48.625 7 48.625 C6.731875 49.24375 6.46375 49.8625 6.1875 50.5 C5 52.625 5 52.625 2 54.625 C-1.21774195 54.42389113 -3.2923344 54.16754362 -5.875 52.1875 C-7 50.625 -7 50.625 -7 48.625 C-7.7425 48.7075 -8.485 48.79 -9.25 48.875 C-12 48.625 -12 48.625 -14.3125 47.0625 C-16.64226201 43.69728821 -16.57289582 41.63527077 -16 37.625 C-14.25 35.1875 -14.25 35.1875 -12 33.625 C-10.68 33.625 -9.36 33.625 -8 33.625 C-8.02618408 32.80298096 -8.05236816 31.98096191 -8.0793457 31.1340332 C-8.1834144 27.40205062 -8.24836128 23.6703734 -8.3125 19.9375 C-8.3753418 17.99713867 -8.3753418 17.99713867 -8.43945312 16.01757812 C-8.45556641 14.77041016 -8.47167969 13.52324219 -8.48828125 12.23828125 C-8.51446533 11.09141846 -8.54064941 9.94455566 -8.56762695 8.76293945 C-7.6684978 3.79239878 -4.93070034 1.02722924 0 0 Z " fill="#DD9784" transform="translate(256,142.375)"/>
<path d="M0 0 C-0.33 0.99 -0.66 1.98 -1 3 C-1.09285268 4.74806713 -1.12791857 6.49946918 -1.12939453 8.25 C-1.13254669 9.32121094 -1.13569885 10.39242187 -1.13894653 11.49609375 C-1.1369223 12.65238281 -1.13489807 13.80867188 -1.1328125 15 C-1.13376923 16.18722656 -1.13472595 17.37445313 -1.13571167 18.59765625 C-1.13639259 21.10937554 -1.13454445 23.62109659 -1.13037109 26.1328125 C-1.12502165 29.98441509 -1.13031911 33.83590105 -1.13671875 37.6875 C-1.13605795 40.12500026 -1.13477676 42.56250044 -1.1328125 45 C-1.13483673 46.15628906 -1.13686096 47.31257813 -1.13894653 48.50390625 C-1.13579437 49.57511719 -1.13264221 50.64632812 -1.12939453 51.75 C-1.12859894 52.69359375 -1.12780334 53.6371875 -1.12698364 54.609375 C-1.09821874 57.14778046 -1.09821874 57.14778046 0 60 C-5.86891502 59.87773094 -8.77741972 58.03919324 -13.203125 54.27734375 C-19.03828286 46.88191542 -18.48735321 38.50077127 -18.4375 29.5 C-18.45748047 28.21996094 -18.47746094 26.93992188 -18.49804688 25.62109375 C-18.49371054 17.23461439 -17.93127564 11.37084865 -12.1484375 4.94140625 C-11.56320313 4.48636719 -10.97796875 4.03132813 -10.375 3.5625 C-9.78460938 3.08941406 -9.19421875 2.61632812 -8.5859375 2.12890625 C-5.59655973 0.00099942 -3.62452824 -0.09538232 0 0 Z " fill="#DFA697" transform="translate(146,113)"/>
<path d="M0 0 C0.93549683 -0.00241196 1.87099365 -0.00482391 2.83483887 -0.00730896 C4.80839283 -0.00633153 6.78197455 0.00703735 8.75537109 0.03198242 C11.77145787 0.06629485 14.78461412 0.05263529 17.80078125 0.03320312 C19.7213666 0.04010184 21.64194441 0.04977445 23.5625 0.0625 C24.91112122 0.0550602 24.91112122 0.0550602 26.2869873 0.04747009 C30.47489526 0.1260146 32.72059297 0.27955594 36.34716797 2.53930664 C38.42446188 4.78363366 38.96504128 5.61879266 38.90625 8.62890625 C38.91914063 9.28890625 38.93203125 9.94890625 38.9453125 10.62890625 C37.86900227 13.87049942 36.16291251 14.83331705 33.28125 16.62890625 C30.04185515 17.22727974 26.84988 17.21344766 23.5625 17.1953125 C22.62700317 17.20151108 21.69150635 17.20770966 20.72766113 17.21409607 C18.75416095 17.22118485 16.78060086 17.21803669 14.80712891 17.20532227 C11.79087173 17.1914505 8.77771435 17.22554764 5.76171875 17.26367188 C3.84114508 17.26462307 1.92056753 17.26276423 0 17.2578125 C-0.89908081 17.27107071 -1.79816162 17.28432892 -2.7244873 17.29798889 C-7.20419157 17.23149645 -9.12942063 17.08060976 -12.78710938 14.27709961 C-14.71875 11.62890625 -14.71875 11.62890625 -15.34375 8.62890625 C-13.58380004 0.18114644 -7.2491144 -0.10689837 0 0 Z " fill="#B97058" transform="translate(197.71875,111.37109375)"/>
<path d="M0 0 C1.36995117 -0.00218285 1.36995117 -0.00218285 2.76757812 -0.00440979 C4.69404295 -0.00275351 6.62052137 0.00877734 8.546875 0.02954102 C11.49015699 0.05849691 14.43163676 0.05014399 17.375 0.03710938 C19.25000873 0.04334726 21.12501178 0.05173858 23 0.0625 C24.31581055 0.05809654 24.31581055 0.05809654 25.65820312 0.05360413 C30.40444356 0.12663347 33.6627124 0.38162856 37.5 3.49609375 C38.94430855 6.38471084 38.87688506 8.29257076 38.5 11.49609375 C36.48718892 14.29038232 34.88009248 16.18963823 31.41967773 16.95803833 C28.86043618 17.14185034 26.34686095 17.16283354 23.78125 17.125 C22.37800476 17.12861794 22.37800476 17.12861794 20.94641113 17.13230896 C18.97285717 17.13133153 16.99927545 17.11796265 15.02587891 17.09301758 C12.00979213 17.05870515 8.99663588 17.07236471 5.98046875 17.09179688 C4.0598834 17.08489816 2.13930559 17.07522555 0.21875 17.0625 C-1.12987122 17.0699398 -1.12987122 17.0699398 -2.5057373 17.07752991 C-6.69364526 16.9989854 -8.93934297 16.84544406 -12.56591797 14.58569336 C-14.64321188 12.34136634 -15.18379128 11.50620734 -15.125 8.49609375 C-15.13789063 7.83609375 -15.15078125 7.17609375 -15.1640625 6.49609375 C-12.8546651 -0.45926782 -6.06522935 -0.07767454 0 0 Z " fill="#B97058" transform="translate(290.5,111.50390625)"/>
<path d="M0 0 C-0.48984375 0.59683594 -0.9796875 1.19367188 -1.484375 1.80859375 C-3.48222856 4.69724285 -3.29337359 6.55286027 -3 10 C-2.67 10.99 -2.34 11.98 -2 13 C3.66159804 14.19138158 3.66159804 14.19138158 9 12.5625 C9.66 12.046875 10.32 11.53125 11 11 C11.37233816 15.65422701 11.46507989 19.05195253 9.375 23.3125 C6.1616559 26.94865254 3.56410613 29.54651346 -1.36328125 30.41796875 C-6.745988 30.72018446 -10.43605991 29.98706498 -14.59375 26.4765625 C-18.03776626 22.86034543 -19.17518193 19.38567402 -19.4375 14.5 C-19.22670552 8.7989674 -16.58157292 5.76764033 -12.875 1.625 C-8.65694446 -0.75911835 -4.73879295 -0.33125543 0 0 Z " fill="#563325" transform="translate(314,136)"/>
<path d="M0 0 C1.22589844 0.01353516 1.22589844 0.01353516 2.4765625 0.02734375 C3.41628906 0.04474609 3.41628906 0.04474609 4.375 0.0625 C4.05273438 0.660625 3.73046875 1.25875 3.3984375 1.875 C2.01750952 4.82660179 1.97197448 6.8382958 2.375 10.0625 C3.79166667 12.64583333 3.79166667 12.64583333 6.375 14.0625 C10.60812311 13.91396936 12.83602322 13.42181785 16.375 11.0625 C16.86367843 15.85154862 17.02265771 19.80140964 14.3125 23.9375 C11.07484166 27.85724929 7.39816767 29.59379183 2.359375 30.375 C-2.8273188 30.69174466 -5.75588657 29.40400706 -9.625 26.0625 C-13.71197179 21.65287254 -14.40590959 17.66036162 -14.22265625 11.828125 C-13.19923054 7.09227271 -10.24748748 4.12768171 -6.625 1.0625 C-4.21954362 -0.14022819 -2.67503047 -0.03821472 0 0 Z " fill="#553224" transform="translate(198.625,135.9375)"/>
<path d="M0 0 C14.74560167 0.28208977 35.48244958 4.08802408 46 15 C45.26475098 15.11069824 44.52950195 15.22139648 43.77197266 15.33544922 C40.38927231 15.84617585 37.00713825 16.36056473 33.625 16.875 C32.46871094 17.04902344 31.31242187 17.22304688 30.12109375 17.40234375 C23.37363857 18.43161657 16.67707716 19.58214681 10 21 C8.705826 18.43873936 7.41459216 15.87606642 6.125 13.3125 C5.76019531 12.59126953 5.39539063 11.87003906 5.01953125 11.12695312 C3.1820758 7.46874636 1.43861498 3.8388305 0 0 Z " fill="#F16C39" transform="translate(267,376)"/>
<path d="M0 0 C-1 3 -1 3 -3.375 4.8125 C-6.76434359 7.63695299 -8.74167926 10.73969356 -9.25 15.1875 C-10 17 -10 17 -13.375 18.5 C-14.57125 18.995 -15.7675 19.49 -17 20 C-19.70589058 22.89140081 -20.52651531 25.38578182 -21.1875 29.25 C-21.42533203 30.58804687 -21.42533203 30.58804687 -21.66796875 31.953125 C-21.83232422 32.96632813 -21.83232422 32.96632813 -22 34 C-28.73304432 29.37338295 -34.33998772 23.86878323 -40 18 C-37.76006297 15.52129702 -35.61011424 14.13531829 -32.60546875 12.6953125 C-31.3047644 12.07052002 -31.3047644 12.07052002 -29.9777832 11.43310547 C-29.05698975 11.00143066 -28.13619629 10.56975586 -27.1875 10.125 C-26.2493042 9.68172363 -25.3111084 9.23844727 -24.34448242 8.78173828 C-5.49166207 0 -5.49166207 0 0 0 Z " fill="#FB7C42" transform="translate(349,420)"/>
<path d="M0 0 C-0.48597656 0.57234375 -0.97195312 1.1446875 -1.47265625 1.734375 C-3.93654458 5.38924771 -3.62352139 8.74043812 -3 13 C-1.12996514 18.91649448 1.95901195 22.50217155 7 26 C9.7124618 27.3049484 9.7124618 27.3049484 12 28 C12 28.33 12 28.66 12 29 C3.91556619 29.43919459 -1.35772401 28.49960117 -8.1875 23.8125 C-12.51303092 19.48696908 -15.1303555 15.00267796 -15.5625 8.8125 C-15 5 -15 5 -13.125 2 C-8.7480865 -0.80122464 -5.05801512 -0.44196249 0 0 Z " fill="#DD9785" transform="translate(244,215)"/>
<path d="M0 0 C1.9375 1.0625 1.9375 1.0625 3 3 C3.5 6.375 3.5 6.375 3 10 C0.71408345 13.06965937 -0.75502329 14.68875582 -4.5 15.625 C-8.20864386 14.69783903 -9.70985284 13.0099077 -12 10 C-12.625 6.9375 -12.625 6.9375 -12 4 C-8.4020115 -0.14313828 -5.35161737 -0.69372818 0 0 Z " fill="#F9EFEE" transform="translate(322,136)"/>
<path d="M0 0 C2.5 1.5 2.5 1.5 4 4 C4.3146662 7.90972754 3.81866526 10.96092486 1.375 14.0625 C-2.11755918 15.44114178 -4.4178041 14.97696252 -8 14 C-10.5881216 11.74582958 -10.94242643 10.39479021 -11.4375 7 C-11 4 -11 4 -9.4375 1.625 C-6.06489221 -0.62340519 -3.97487617 -0.56783945 0 0 Z " fill="#FAEFEF" transform="translate(211,136)"/>
<path d="M0 0 C5.94 0 11.88 0 18 0 C18 0.33 18 0.66 18 1 C16.35 1 14.7 1 13 1 C12.75507813 1.55171875 12.51015625 2.1034375 12.2578125 2.671875 C10.74261886 5.47639491 8.88915874 7.78103123 6.875 10.25 C6.15054688 11.14203125 5.42609375 12.0340625 4.6796875 12.953125 C3.84824219 13.96632813 3.84824219 13.96632813 3 15 C2.34 14.67 1.68 14.34 1 14 C0.39023734 9.34624538 0.25350648 4.68986994 0 0 Z " fill="#F06C39" transform="translate(184,446)"/>
</svg>
